<svg width="24" height="25" viewBox="0 0 24 25" fill="none" xmlns="http://www.w3.org/2000/svg">
<rect y="0.5" width="24" height="24" rx="12" fill="#4C2E88"/>
<path d="M14.9238 15.6094V16.5H9.33984V15.7207L12.1348 12.6094C12.4785 12.2266 12.7441 11.9023 12.9316 11.6367C13.123 11.3672 13.2559 11.127 13.3301 10.916C13.4082 10.7012 13.4473 10.4824 13.4473 10.2598C13.4473 9.97852 13.3887 9.72461 13.2715 9.49805C13.1582 9.26758 12.9902 9.08398 12.7676 8.94727C12.5449 8.81055 12.2754 8.74219 11.959 8.74219C11.5801 8.74219 11.2637 8.81641 11.0098 8.96484C10.7598 9.10938 10.5723 9.3125 10.4473 9.57422C10.3223 9.83594 10.2598 10.1367 10.2598 10.4766H9.17578C9.17578 9.99609 9.28125 9.55664 9.49219 9.1582C9.70312 8.75977 10.0156 8.44336 10.4297 8.20898C10.8438 7.9707 11.3535 7.85156 11.959 7.85156C12.498 7.85156 12.959 7.94727 13.3418 8.13867C13.7246 8.32617 14.0176 8.5918 14.2207 8.93555C14.4277 9.27539 14.5312 9.67383 14.5312 10.1309C14.5312 10.3809 14.4883 10.6348 14.4023 10.8926C14.3203 11.1465 14.2051 11.4004 14.0566 11.6543C13.9121 11.9082 13.7422 12.1582 13.5469 12.4043C13.3555 12.6504 13.1504 12.8926 12.9316 13.1309L10.6465 15.6094H14.9238Z" fill="white"/>
</svg>
