<svg width="24" height="25" viewBox="0 0 24 25" fill="none" xmlns="http://www.w3.org/2000/svg">
<rect y="0.5" width="24" height="24" rx="12" fill="#4C2E88" fill-opacity="0.3"/>
<path d="M10.916 11.7012H11.6895C12.0684 11.7012 12.3809 11.6387 12.627 11.5137C12.877 11.3848 13.0625 11.2109 13.1836 10.9922C13.3086 10.7695 13.3711 10.5195 13.3711 10.2422C13.3711 9.91406 13.3164 9.63867 13.207 9.41602C13.0977 9.19336 12.9336 9.02539 12.7148 8.91211C12.4961 8.79883 12.2188 8.74219 11.8828 8.74219C11.5781 8.74219 11.3086 8.80273 11.0742 8.92383C10.8438 9.04102 10.6621 9.20898 10.5293 9.42773C10.4004 9.64648 10.3359 9.9043 10.3359 10.2012H9.25195C9.25195 9.76758 9.36133 9.37305 9.58008 9.01758C9.79883 8.66211 10.1055 8.37891 10.5 8.16797C10.8984 7.95703 11.3594 7.85156 11.8828 7.85156C12.3984 7.85156 12.8496 7.94336 13.2363 8.12695C13.623 8.30664 13.9238 8.57617 14.1387 8.93555C14.3535 9.29102 14.4609 9.73438 14.4609 10.2656C14.4609 10.4805 14.4102 10.7109 14.3086 10.957C14.2109 11.1992 14.0566 11.4258 13.8457 11.6367C13.6387 11.8477 13.3691 12.0215 13.0371 12.1582C12.7051 12.291 12.3066 12.3574 11.8418 12.3574H10.916V11.7012ZM10.916 12.5918V11.9414H11.8418C12.3848 11.9414 12.834 12.0059 13.1895 12.1348C13.5449 12.2637 13.8242 12.4355 14.0273 12.6504C14.2344 12.8652 14.3789 13.1016 14.4609 13.3594C14.5469 13.6133 14.5898 13.8672 14.5898 14.1211C14.5898 14.5195 14.5215 14.873 14.3848 15.1816C14.252 15.4902 14.0625 15.752 13.8164 15.9668C13.5742 16.1816 13.2891 16.3438 12.9609 16.4531C12.6328 16.5625 12.2754 16.6172 11.8887 16.6172C11.5176 16.6172 11.168 16.5645 10.8398 16.459C10.5156 16.3535 10.2285 16.2012 9.97852 16.002C9.72852 15.7988 9.5332 15.5508 9.39258 15.2578C9.25195 14.9609 9.18164 14.623 9.18164 14.2441H10.2656C10.2656 14.541 10.3301 14.8008 10.459 15.0234C10.5918 15.2461 10.7793 15.4199 11.0215 15.5449C11.2676 15.666 11.5566 15.7266 11.8887 15.7266C12.2207 15.7266 12.5059 15.6699 12.7441 15.5566C12.9863 15.4395 13.1719 15.2637 13.3008 15.0293C13.4336 14.7949 13.5 14.5 13.5 14.1445C13.5 13.7891 13.4258 13.498 13.2773 13.2715C13.1289 13.041 12.918 12.8711 12.6445 12.7617C12.375 12.6484 12.0566 12.5918 11.6895 12.5918H10.916Z" fill="white"/>
</svg>
