<svg width="56" height="56" viewBox="0 0 56 56" fill="none" xmlns="http://www.w3.org/2000/svg">
<path d="M0 28C0 12.536 12.536 0 28 0C43.464 0 56 12.536 56 28C56 43.464 43.464 56 28 56C12.536 56 0 43.464 0 28Z" fill="#4C2E88"/>
<path d="M37 26H19M32 18V22M24 18V22M23.8 38H32.2C33.8802 38 34.7202 38 35.362 37.673C35.9265 37.3854 36.3854 36.9265 36.673 36.362C37 35.7202 37 34.8802 37 33.2V24.8C37 23.1198 37 22.2798 36.673 21.638C36.3854 21.0735 35.9265 20.6146 35.362 20.327C34.7202 20 33.8802 20 32.2 20H23.8C22.1198 20 21.2798 20 20.638 20.327C20.0735 20.6146 19.6146 21.0735 19.327 21.638C19 22.2798 19 23.1198 19 24.8V33.2C19 34.8802 19 35.7202 19.327 36.362C19.6146 36.9265 20.0735 37.3854 20.638 37.673C21.2798 38 22.1198 38 23.8 38Z" stroke="white" stroke-width="2" stroke-linecap="round" stroke-linejoin="round"/>
</svg>
