<svg width="61" height="60" viewBox="0 0 61 60" fill="none" xmlns="http://www.w3.org/2000/svg">
<rect x="0.5" width="60" height="60" rx="30" fill="white"/>
<g clip-path="url(#clip0_126_2208)">
<path d="M20.0219 33.427C21.8783 33.427 23.7301 34.2138 24.5817 35.638L22.567 37.2678C21.8813 36.65 21.0455 36.199 20.0053 36.199C18.8819 36.199 18.334 36.6577 18.334 37.0848C18.334 37.6514 18.858 37.9821 20.0053 38.265L21.034 38.515C23.9362 39.2147 25.0028 40.5596 25.0028 42.2415C25.0028 44.4567 23.0248 46 19.7181 46C17.8681 46 15.5871 45.2247 14.7078 43.6299L16.7229 42C17.5387 42.8273 18.462 43.3269 19.7011 43.3269C20.7737 43.3269 21.6253 42.969 21.6253 42.3255C21.6253 41.8093 21.2366 41.61 20.1738 41.3438L19.0943 41.0771C16.2092 40.3612 15.0922 38.7343 15.0922 37.1689C15.0922 35.1422 16.8842 33.427 20.0219 33.427ZM43.4634 33.7726V36.5941H39.931V45.6224H36.667V36.5941H33.1351V33.7726H43.4634ZM17.7503 14V21.0229C17.7503 22.422 18.5486 23.2186 19.8478 23.2186C21.1466 23.2186 21.9287 22.422 21.9287 21.0229V14H25.1786V21.0076C25.1786 24.2652 23.2287 26.2274 19.8645 26.2274C16.3671 26.2274 14.5 24.182 14.5 21.0076V14H17.7503ZM40.6005 17.5127V22.1152H35.998V17.5127H40.6005Z" fill="black" fill-opacity="0.87"/>
</g>
<defs>
<clipPath id="clip0_126_2208">
<rect width="32" height="32" fill="white" transform="translate(14.5 14)"/>
</clipPath>
</defs>
</svg>
