<svg width="60" height="60" viewBox="0 0 60 60" fill="none" xmlns="http://www.w3.org/2000/svg">
<rect width="60" height="60" rx="30" fill="white"/>
<path d="M33.6975 46.9417C33.2618 47.2569 32.8261 47.5575 32.357 47.8458C31.5733 47.9485 30.7837 47.9999 29.9933 47.9998C25.4655 47.9915 21.107 46.2774 17.7866 43.199C14.4662 40.1207 12.4276 35.9042 12.0772 31.39C11.7268 26.8757 13.0903 22.3952 15.896 18.8414C18.7017 15.2875 22.7434 12.9214 27.2158 12.2146H27.1947C24.7777 13.7491 22.7921 15.8749 21.4257 18.3909C20.0594 20.9068 19.3574 23.7297 19.3863 26.5925V26.6085C18.9174 28.0717 18.7564 29.616 18.9132 31.1445C19.0701 32.6729 19.5415 34.1523 20.2978 35.4898C21.0541 36.8272 22.0789 37.9937 23.3078 38.9159C24.5367 39.8381 25.9432 40.4961 27.4387 40.8484C28.9342 41.2008 30.4864 41.2399 31.9978 40.9633C33.5091 40.6867 34.9469 40.1004 36.2207 39.2413C37.4945 38.3822 38.5768 37.2688 39.3995 35.9711C40.2222 34.6735 40.7675 33.2197 41.0012 31.7011C41.015 31.826 42.4782 40.5595 33.6975 46.9417Z" fill="url(#paint0_linear_126_2200)"/>
<path d="M47.9771 30.0008C47.9788 34.36 46.3976 38.5716 43.5275 41.8526C40.6573 45.1336 36.6934 47.2609 32.3727 47.8389C32.8439 47.5434 33.2891 47.2405 33.7131 46.9348C42.4939 40.5533 41.0307 31.8198 41.0118 31.708C41.0988 31.1413 41.1424 30.5689 41.1425 29.9957C41.1478 27.337 40.2013 24.7642 38.4742 22.7428C36.7472 20.7215 34.3537 19.385 31.7268 18.9752C29.0998 18.5655 26.413 19.1095 24.1524 20.5089C21.8918 21.9082 20.2067 24.0705 19.402 26.6045C19.3731 23.7414 20.0751 20.9184 21.4416 18.4023C22.8081 15.8862 24.7939 13.7603 27.2111 12.2258H27.2322C29.7988 11.8144 32.4242 11.9667 34.9261 12.6719C37.428 13.3772 39.7464 14.6186 41.7203 16.3099C43.6942 18.0012 45.2764 20.1019 46.3568 22.4661C47.4373 24.8303 47.9902 27.4014 47.9771 30.0008Z" fill="url(#paint1_linear_126_2200)"/>
<defs>
<linearGradient id="paint0_linear_126_2200" x1="12.8664" y1="14.648" x2="44.8542" y2="43.9361" gradientUnits="userSpaceOnUse">
<stop offset="0.03" stop-color="#4C1A72"/>
<stop offset="1" stop-color="#C31F5D"/>
</linearGradient>
<linearGradient id="paint1_linear_126_2200" x1="19.4011" y1="29.9195" x2="47.9773" y2="29.9195" gradientUnits="userSpaceOnUse">
<stop offset="0.02" stop-color="#4C1A88"/>
<stop offset="0.17" stop-color="#511A86"/>
<stop offset="0.36" stop-color="#611B80"/>
<stop offset="0.58" stop-color="#7B1C77"/>
<stop offset="0.81" stop-color="#9F1D6A"/>
<stop offset="1" stop-color="#C31F5D"/>
</linearGradient>
</defs>
</svg>
