<svg width="60" height="60" viewBox="0 0 60 60" fill="none" xmlns="http://www.w3.org/2000/svg">
<rect width="60" height="60" rx="30" fill="white"/>
<g clip-path="url(#clip0_126_2222)">
<path d="M10.0573 36.8859H17.8123V37.9961H10.0573V36.8859Z" fill="#1F70C1"/>
<path d="M10.0573 34.7566H17.8123V35.8706H10.0573V34.7566Z" fill="#1F70C1"/>
<path d="M12.2697 32.6311H15.5961V33.7452H12.2697V32.6311Z" fill="#1F70C1"/>
<path d="M12.2697 30.5057H15.5961V31.6198H12.2697V30.5057Z" fill="#1F70C1"/>
<path d="M12.2697 28.3802H15.5961V29.4943H12.2697V28.3802Z" fill="#1F70C1"/>
<path d="M12.2697 26.2509H15.5961V27.3649H12.2697V26.2509Z" fill="#1F70C1"/>
<path d="M17.8123 24.1254H10.0573V25.2395H17.8123V24.1254Z" fill="#1F70C1"/>
<path d="M17.8123 22H10.0573V23.1141H17.8123V22Z" fill="#1F70C1"/>
<path d="M18.9185 35.8706H30.8454C31.0468 35.5269 31.1969 35.1516 31.2878 34.7565H18.9185V35.8706Z" fill="#1F70C1"/>
<path d="M29.917 30.5057H21.1348V31.6198H30.8454C30.5925 31.1931 30.2804 30.8178 29.917 30.5057Z" fill="#1F70C1"/>
<path d="M21.1348 28.3802V29.4943H29.917C30.2884 29.1822 30.6004 28.8069 30.8454 28.3802H21.1348Z" fill="#1F70C1"/>
<path d="M30.8454 24.1254H18.9185V25.2395H31.2878C31.1851 24.8444 31.035 24.4692 30.8454 24.1254Z" fill="#1F70C1"/>
<path d="M27.1792 22H18.9185V23.1141H30.0276C29.2849 22.4267 28.2775 22 27.1792 22Z" fill="#1F70C1"/>
<path d="M24.4572 26.2509H21.1348V27.3649H24.4572V26.2509Z" fill="#1F70C1"/>
<path d="M27.7837 27.3649H31.2602C31.359 27.0094 31.4104 26.6341 31.4104 26.2509H27.7837V27.3649Z" fill="#1F70C1"/>
<path d="M21.1348 32.6311H24.4572V33.7452H21.1348V32.6311Z" fill="#1F70C1"/>
<path d="M27.7837 32.6311V33.7452H31.4104C31.4104 33.362 31.359 32.9867 31.2602 32.6311H27.7837Z" fill="#1F70C1"/>
<path d="M18.9185 37.9882L27.1792 38C28.2854 38 29.2849 37.5734 30.0315 36.8859H18.9185V37.9882Z" fill="#1F70C1"/>
<path d="M32.2163 36.8859H37.755V37.9961H32.2163V36.8859Z" fill="#1F70C1"/>
<path d="M32.2163 34.7566H37.755V35.8706H32.2163V34.7566Z" fill="#1F70C1"/>
<path d="M34.4286 32.6311H37.755V33.7452H34.4286V32.6311Z" fill="#1F70C1"/>
<path d="M34.4286 30.5057H37.755V31.6198H34.4286V30.5057Z" fill="#1F70C1"/>
<path d="M39.2958 24.1254H32.2163V25.2395H39.679L39.2958 24.1254Z" fill="#1F70C1"/>
<path d="M38.561 22H32.2163V23.1141H38.9442L38.561 22Z" fill="#1F70C1"/>
<path d="M44.4 36.8859H49.9427V37.9961H44.4V36.8859Z" fill="#1F70C1"/>
<path d="M44.4 34.7566H49.9427V35.8706H44.4V34.7566Z" fill="#1F70C1"/>
<path d="M44.4 32.6311H47.7264V33.7452H44.4V32.6311Z" fill="#1F70C1"/>
<path d="M44.4 30.5057H47.7264V31.6198H44.4V30.5057Z" fill="#1F70C1"/>
<path d="M44.3999 29.4943H47.7264V28.3802H44.3999H41.3896L41.0775 29.281L40.7654 28.3802H37.755H34.4286V29.4943H37.755V28.4711L38.1066 29.4943H44.0484L44.3999 28.4711V29.4943Z" fill="#1F70C1"/>
<path d="M47.7264 26.2509H42.1244L41.7412 27.3649H47.7264V26.2509Z" fill="#1F70C1"/>
<path d="M43.5981 22L43.2148 23.1141H49.9428V22H43.5981Z" fill="#1F70C1"/>
<path d="M41.0776 37.9882L41.4607 36.8859H40.6943L41.0776 37.9882Z" fill="#1F70C1"/>
<path d="M40.3428 35.8706H41.8124L42.2075 34.7566H39.9517L40.3428 35.8706Z" fill="#1F70C1"/>
<path d="M39.5961 33.7452H42.559L42.9502 32.6311L39.205 32.6311L39.5961 33.7452Z" fill="#1F70C1"/>
<path d="M38.8533 31.6198H43.3056L43.6849 30.5057H38.4701L38.8533 31.6198Z" fill="#1F70C1"/>
<path d="M34.4286 27.3649H40.4138L40.0306 26.2509H34.4286V27.3649Z" fill="#1F70C1"/>
<path d="M42.48 25.2395H49.9427V24.1254H42.8593L42.48 25.2395Z" fill="#1F70C1"/>
</g>
<defs>
<clipPath id="clip0_126_2222">
<rect width="39.8854" height="16" fill="white" transform="translate(10.0573 22)"/>
</clipPath>
</defs>
</svg>
