<svg width="56" height="56" viewBox="0 0 56 56" fill="none" xmlns="http://www.w3.org/2000/svg">
<rect width="56" height="56" rx="28" fill="#4C2E88" fill-opacity="0.04"/>
<path d="M29.744 18.6336L37.272 23.5268C37.538 23.6997 37.671 23.7861 37.7674 23.9015C37.8527 24.0035 37.9167 24.1216 37.9558 24.2488C38 24.3924 38 24.551 38 24.8683V32.2C38 33.8802 38 34.7202 37.673 35.362C37.3854 35.9265 36.9265 36.3854 36.362 36.673C35.7202 37 34.8802 37 33.2 37H22.8C21.1198 37 20.2798 37 19.638 36.673C19.0735 36.3854 18.6146 35.9265 18.327 35.362C18 34.7202 18 33.8802 18 32.2V24.8683C18 24.551 18 24.3924 18.0442 24.2488C18.0833 24.1216 18.1473 24.0035 18.2326 23.9015C18.329 23.7861 18.462 23.6997 18.728 23.5268L26.256 18.6336M29.744 18.6336C29.1127 18.2233 28.7971 18.0181 28.457 17.9383C28.1564 17.8677 27.8436 17.8677 27.543 17.9383C27.2029 18.0181 26.8873 18.2233 26.256 18.6336M29.744 18.6336L36.9681 23.3292C37.312 23.5528 37.484 23.6646 37.5435 23.8063C37.5956 23.9302 37.5956 24.0698 37.5435 24.1937C37.484 24.3354 37.312 24.4472 36.9681 24.6708L29.744 29.3664C29.1127 29.7767 28.7971 29.9819 28.457 30.0617C28.1564 30.1323 27.8436 30.1323 27.543 30.0617C27.2029 29.9819 26.8873 29.7767 26.256 29.3664L19.0319 24.6708C18.688 24.4472 18.516 24.3354 18.4565 24.1937C18.4044 24.0698 18.4044 23.9302 18.4565 23.8063C18.516 23.6646 18.688 23.5528 19.0319 23.3292L26.256 18.6336" stroke="#4C2E88" stroke-opacity="0.5" stroke-width="2" stroke-linecap="round" stroke-linejoin="round"/>
</svg>
