<svg width="56" height="56" viewBox="0 0 56 56" fill="none" xmlns="http://www.w3.org/2000/svg">
<rect width="56" height="56" rx="10" fill="#4C2E88" fill-opacity="0.06"/>
<path d="M38.6667 40C38.6667 38.1392 38.6667 37.2089 38.4371 36.4518C37.92 34.7473 36.5861 33.4134 34.8816 32.8963C34.1245 32.6667 33.1941 32.6667 31.3334 32.6667H24.6667C22.806 32.6667 21.8756 32.6667 21.1185 32.8963C19.414 33.4134 18.0801 34.7473 17.563 36.4518C17.3334 37.2089 17.3334 38.1392 17.3334 40M34 22C34 25.3137 31.3137 28 28 28C24.6863 28 22 25.3137 22 22C22 18.6863 24.6863 16 28 16C31.3137 16 34 18.6863 34 22Z" stroke="#927EBC" stroke-width="2" stroke-linecap="round" stroke-linejoin="round"/>
</svg>
