<svg width="56" height="56" viewBox="0 0 56 56" fill="none" xmlns="http://www.w3.org/2000/svg">
<rect width="56" height="56" rx="10" fill="#4C2E88" fill-opacity="0.06"/>
<path d="M24.6666 41.3334H31.3333M25.3333 25.3334H30.6666M28 25.3334L28 33.3334M32 32.4352C35.1532 30.9372 37.3333 27.7232 37.3333 24C37.3333 18.8454 33.1546 14.6667 28 14.6667C22.8453 14.6667 18.6666 18.8454 18.6666 24C18.6666 27.7232 20.8467 30.9372 24 32.4352V33.3334C24 34.5759 24 35.1971 24.2029 35.6872C24.4736 36.3406 24.9927 36.8597 25.6461 37.1304C26.1362 37.3334 26.7574 37.3334 28 37.3334C29.2425 37.3334 29.8637 37.3334 30.3538 37.1304C31.0072 36.8597 31.5263 36.3406 31.797 35.6872C32 35.1971 32 34.5759 32 33.3334V32.4352Z" stroke="#927EBC" stroke-width="2" stroke-linecap="round" stroke-linejoin="round"/>
</svg>
