<svg width="56" height="56" viewBox="0 0 56 56" fill="none" xmlns="http://www.w3.org/2000/svg">
<rect width="56" height="56" rx="10" fill="#4C2E88" fill-opacity="0.06"/>
<path d="M32 24H32.0133M32 32C36.4183 32 40 28.4183 40 24C40 19.5817 36.4183 16 32 16C27.5817 16 24 19.5817 24 24C24 24.3649 24.0244 24.7241 24.0717 25.076C24.1496 25.6549 24.1885 25.9443 24.1623 26.1275C24.135 26.3182 24.1003 26.421 24.0063 26.5892C23.916 26.7507 23.7569 26.9097 23.4388 27.2278L16.6248 34.0418C16.3942 34.2724 16.2789 34.3877 16.1965 34.5223C16.1234 34.6416 16.0695 34.7716 16.0368 34.9077C16 35.0611 16 35.2242 16 35.5503V37.8667C16 38.6134 16 38.9868 16.1453 39.272C16.2732 39.5229 16.4771 39.7268 16.728 39.8547C17.0132 40 17.3866 40 18.1333 40H20.4497C20.7758 40 20.9389 40 21.0923 39.9632C21.2284 39.9305 21.3584 39.8766 21.4777 39.8035C21.6123 39.7211 21.7276 39.6058 21.9582 39.3752L28.7722 32.5612C29.0903 32.2431 29.2493 32.084 29.4108 31.9937C29.579 31.8997 29.6818 31.865 29.8725 31.8377C30.0557 31.8115 30.3451 31.8504 30.924 31.9283C31.2759 31.9756 31.6351 32 32 32Z" stroke="#927EBC" stroke-width="2" stroke-linecap="round" stroke-linejoin="round"/>
</svg>
