<svg width="56" height="56" viewBox="0 0 56 56" fill="none" xmlns="http://www.w3.org/2000/svg">
<rect width="56" height="56" rx="10" fill="#4C2E88" fill-opacity="0.06"/>
<path d="M30.6667 15.0261V20.5335C30.6667 21.2802 30.6667 21.6536 30.812 21.9388C30.9399 22.1897 31.1438 22.3936 31.3947 22.5215C31.6799 22.6668 32.0533 22.6668 32.8 22.6668H38.3074M30.6667 34.6667H22.6667M33.3334 29.3334H22.6667M38.6667 25.3177V34.9334C38.6667 37.1736 38.6667 38.2937 38.2307 39.1493C37.8472 39.902 37.2353 40.5139 36.4827 40.8974C35.627 41.3334 34.5069 41.3334 32.2667 41.3334H23.7334C21.4932 41.3334 20.3731 41.3334 19.5174 40.8974C18.7648 40.5139 18.1528 39.902 17.7693 39.1493C17.3334 38.2937 17.3334 37.1736 17.3334 34.9334V21.0667C17.3334 18.8265 17.3334 17.7064 17.7693 16.8507C18.1528 16.0981 18.7648 15.4862 19.5174 15.1027C20.3731 14.6667 21.4932 14.6667 23.7334 14.6667H28.0157C28.9941 14.6667 29.4833 14.6667 29.9436 14.7772C30.3518 14.8752 30.742 15.0368 31.0998 15.2561C31.5035 15.5035 31.8494 15.8494 32.5412 16.5412L36.7922 20.7922C37.484 21.484 37.8299 21.8299 38.0773 22.2335C38.2966 22.5914 38.4582 22.9816 38.5562 23.3898C38.6667 23.8501 38.6667 24.3393 38.6667 25.3177Z" stroke="#927EBC" stroke-width="2" stroke-linecap="round" stroke-linejoin="round"/>
</svg>
