<svg width="59" height="34" viewBox="0 0 59 34" fill="none" xmlns="http://www.w3.org/2000/svg">
<g id="SVG">
<g id="Clip path group">
<mask id="mask0_11_273" style="mask-type:luminance" maskUnits="userSpaceOnUse" x="0" y="1" width="58" height="32">
<g id="clip0_11275_169468">
<path id="Vector" d="M57.75 1.25H0.75V32.75H57.75V1.25Z" fill="white"/>
</g>
</mask>
<g mask="url(#mask0_11_273)">
<g id="Group">
<path id="Vector_2" fill-rule="evenodd" clip-rule="evenodd" d="M45.9785 1.25001V24.9331H40.3032V2.43416L45.9785 1.25001ZM29.8195 27.1775C31.3867 27.1775 32.6572 28.4249 32.6572 29.9637C32.6572 31.5024 31.3867 32.75 29.8195 32.75C28.2523 32.75 26.9818 31.5024 26.9818 29.9637C26.9818 28.4249 28.2523 27.1775 29.8195 27.1775ZM29.8195 7.97567C34.6515 7.97567 38.577 11.8223 38.577 16.5743C38.577 21.3265 34.6515 25.173 29.8195 25.173C24.9798 25.173 21.0623 21.3265 21.0623 16.5743C21.0623 11.8223 24.9876 7.97567 29.8195 7.97567ZM29.8195 19.3605C31.3881 19.3605 32.6572 18.1145 32.6572 16.5743C32.6572 15.0342 31.3881 13.7881 29.8195 13.7881C28.251 13.7881 26.9818 15.0342 26.9818 16.5743C26.9818 18.1145 28.251 19.3605 29.8195 19.3605ZM11.966 19.3605C12.9434 19.3605 13.7395 18.5789 13.7395 17.6192C13.7395 16.6595 12.9434 15.8777 11.966 15.8777H7.70944V19.3605H11.966ZM7.70944 6.82248V10.3053H10.8624C11.8398 10.3053 12.636 9.52355 12.636 8.56388C12.636 7.60418 11.8398 6.82248 10.8624 6.82248H7.70944ZM17.1919 12.4104C18.5635 13.7416 19.4148 15.5837 19.407 17.6192C19.407 21.6593 16.0728 24.9331 11.9581 24.9331H2.02625V1.25H10.8545C14.9692 1.25 18.3034 4.52384 18.3034 8.56388C18.3034 9.9725 17.9015 11.296 17.1919 12.4104ZM56.6985 13.8655H53.8689V18.2384C53.8689 19.5618 54.3024 20.537 55.4373 20.537C56.1705 20.537 56.7064 20.3744 56.7064 20.3744V24.4764C56.7064 24.4764 55.532 25.173 53.9397 25.173H53.8689C53.7978 25.173 53.7348 25.1653 53.6639 25.1653H53.6087C53.5772 25.1653 53.5377 25.1574 53.5062 25.1574C50.3374 24.995 48.1855 23.0367 48.1855 19.6392V5.2204L53.8609 4.03624V8.293H56.6985V13.8655Z" fill="#9DA4AE"/>
</g>
</g>
</g>
</g>
</svg>
