<svg width="62" height="36" viewBox="0 0 62 36" fill="none" xmlns="http://www.w3.org/2000/svg">
<g id="SVG" clip-path="url(#clip0_11_279)">
<g id="Clip path group">
<mask id="mask0_11_279" style="mask-type:luminance" maskUnits="userSpaceOnUse" x="1" y="0" width="61" height="36">
<g id="clip0_11275_169470">
<path id="Vector" d="M61.25 0H1.25V36H61.25V0Z" fill="white"/>
</g>
</mask>
<g mask="url(#mask0_11_279)">
<g id="Group">
<path id="Vector_2" d="M18.4313 13.134C18.4313 13.8659 18.5105 14.4593 18.6489 14.8944C18.8072 15.3296 19.0049 15.8043 19.2819 16.3186C19.3808 16.4769 19.4204 16.6351 19.4204 16.7736C19.4204 16.9714 19.3017 17.1691 19.0445 17.367L17.7984 18.1977C17.6204 18.3165 17.4423 18.3757 17.2841 18.3757C17.0862 18.3757 16.8885 18.2769 16.6907 18.0989C16.4138 17.8022 16.1763 17.4857 15.9786 17.1692C15.7808 16.8328 15.5829 16.4571 15.3654 16.0022C13.8226 17.822 11.8841 18.7318 9.55002 18.7318C7.88848 18.7318 6.5632 18.2571 5.59398 17.3076C4.62475 16.3582 4.13025 15.0923 4.13025 13.5098C4.13025 11.8285 4.72365 10.4637 5.93025 9.4351C7.13683 8.40654 8.73903 7.89225 10.7764 7.89225C11.4489 7.89225 12.1412 7.95159 12.8731 8.0505C13.605 8.14939 14.3566 8.30764 15.1478 8.48566V7.0417C15.1478 5.5384 14.8313 4.49005 14.2182 3.87687C13.5852 3.26368 12.517 2.96698 10.994 2.96698C10.3017 2.96698 9.58959 3.04609 8.85771 3.22411C8.12584 3.40215 7.41376 3.61972 6.72145 3.89665C6.40497 4.0351 6.16761 4.11423 6.02914 4.1538C5.89068 4.19335 5.79178 4.21314 5.71266 4.21314C5.43574 4.21314 5.29728 4.01533 5.29728 3.59994V2.63071C5.29728 2.31423 5.33683 2.07687 5.43574 1.9384C5.53464 1.79994 5.71266 1.66149 5.98959 1.52302C6.68188 1.16698 7.51266 0.870275 8.48188 0.632914C9.45112 0.37577 10.4797 0.257089 11.5676 0.257089C13.9215 0.257089 15.6423 0.791155 16.7501 1.85928C17.8379 2.92741 18.3918 4.54939 18.3918 6.72522V13.134H18.4313ZM10.4006 16.1406C11.0533 16.1406 11.7258 16.0219 12.4379 15.7845C13.15 15.5472 13.783 15.112 14.3171 14.5186C14.6335 14.1428 14.8709 13.7274 14.9896 13.2527C15.1083 12.778 15.1874 12.2043 15.1874 11.5318V10.701C14.6138 10.5626 14.0006 10.4439 13.3676 10.3648C12.7346 10.2857 12.1215 10.2461 11.5083 10.2461C10.183 10.2461 9.21376 10.5032 8.56101 11.0373C7.90827 11.5714 7.59178 12.323 7.59178 13.312C7.59178 14.2417 7.82914 14.934 8.32365 15.4088C8.79837 15.9033 9.49068 16.1406 10.4006 16.1406ZM26.2841 18.2769C25.928 18.2769 25.6907 18.2175 25.5324 18.0791C25.3742 17.9604 25.2357 17.6835 25.1171 17.3076L20.4687 2.01753C20.3501 1.62192 20.2907 1.36478 20.2907 1.22632C20.2907 0.909836 20.4489 0.731815 20.7654 0.731815H22.7039C23.0796 0.731815 23.3369 0.791155 23.4753 0.929617C23.6336 1.0483 23.7522 1.32522 23.8709 1.70104L27.194 14.7955L30.2796 1.70104C30.3786 1.30544 30.4973 1.0483 30.6555 0.929617C30.8138 0.810935 31.0907 0.731815 31.4468 0.731815H33.0291C33.4049 0.731815 33.6621 0.791155 33.8204 0.929617C33.9786 1.0483 34.1171 1.32522 34.1961 1.70104L37.3214 14.9538L40.7435 1.70104C40.8621 1.30544 41.0006 1.0483 41.139 0.929617C41.2973 0.810935 41.5544 0.731815 41.9105 0.731815H43.7501C44.0664 0.731815 44.2445 0.890056 44.2445 1.22632C44.2445 1.32522 44.2247 1.42412 44.2049 1.54281C44.1852 1.66149 44.1456 1.81972 44.0664 2.03731L39.2994 17.3274C39.1808 17.7229 39.0423 17.9802 38.8841 18.0989C38.7258 18.2175 38.4687 18.2967 38.1324 18.2967H36.4313C36.0555 18.2967 35.7984 18.2373 35.6402 18.0989C35.4819 17.9604 35.3435 17.7033 35.2643 17.3076L32.1984 4.54939L29.1522 17.2878C29.0534 17.6835 28.9346 17.9406 28.7763 18.0791C28.6181 18.2175 28.3412 18.2769 27.9852 18.2769H26.2841ZM51.7017 18.8109C50.673 18.8109 49.6445 18.6922 48.6555 18.455C47.6664 18.2175 46.8951 17.9604 46.3808 17.6637C46.0643 17.4856 45.8468 17.2878 45.7676 17.1099C45.6885 16.9319 45.6489 16.734 45.6489 16.556V15.5472C45.6489 15.1319 45.8072 14.934 46.1039 14.934C46.2225 14.934 46.3412 14.9538 46.4598 14.9934C46.5786 15.0329 46.7565 15.1121 46.9544 15.1911C47.627 15.4878 48.3588 15.7252 49.1303 15.8835C49.9214 16.0417 50.6928 16.1208 51.4841 16.1208C52.7303 16.1208 53.6994 15.9033 54.372 15.4682C55.0445 15.0329 55.4006 14.3999 55.4006 13.589C55.4006 13.0351 55.2225 12.5802 54.8664 12.2043C54.5105 11.8285 53.8379 11.4922 52.8687 11.1758L50.0006 10.2857C48.5565 9.83071 47.4885 9.15819 46.8357 8.26807C46.1829 7.39774 45.8468 6.42852 45.8468 5.39994C45.8468 4.56918 46.0247 3.83731 46.3808 3.20434C46.7369 2.57137 47.2115 2.01753 47.8049 1.58236C48.3984 1.12742 49.0709 0.791155 49.8621 0.553792C50.6534 0.31643 51.4841 0.217529 52.3544 0.217529C52.7895 0.217529 53.2445 0.237308 53.6796 0.29665C54.1346 0.35599 54.5501 0.43511 54.9654 0.514232C55.361 0.613133 55.7369 0.712034 56.0928 0.830716C56.4489 0.949397 56.7258 1.06808 56.9237 1.18676C57.2006 1.345 57.3984 1.50324 57.5171 1.68126C57.6357 1.83951 57.6951 2.05708 57.6951 2.33401V3.26368C57.6951 3.67906 57.5369 3.89665 57.2402 3.89665C57.0819 3.89665 56.8247 3.81753 56.4885 3.65928C55.361 3.145 54.0951 2.88786 52.6907 2.88786C51.5631 2.88786 50.673 3.06588 50.0598 3.4417C49.4468 3.81753 49.1303 4.39116 49.1303 5.20215C49.1303 5.75599 49.328 6.23071 49.7237 6.60654C50.1192 6.98236 50.8511 7.35819 51.8994 7.69446L54.7082 8.58456C56.1324 9.03951 57.161 9.67248 57.7742 10.4835C58.3874 11.2944 58.6841 12.2241 58.6841 13.2527C58.6841 14.1032 58.506 14.8747 58.1697 15.5472C57.8138 16.2198 57.339 16.8132 56.7258 17.2878C56.1126 17.7824 55.3808 18.1384 54.5303 18.3955C53.6402 18.6724 52.7105 18.8109 51.7017 18.8109Z" fill="#9DA4AE"/>
<path id="Vector_3" fill-rule="evenodd" clip-rule="evenodd" d="M55.4401 28.4243C48.9325 33.2309 39.4775 35.7825 31.3478 35.7825C19.9544 35.7825 9.68846 31.5693 1.93462 24.567C1.32143 24.0132 1.87528 23.2616 2.60714 23.6967C10.994 28.5627 21.339 31.5099 32.04 31.5099C39.2598 31.5099 47.1917 30.0066 54.4907 26.921C55.5787 26.4264 56.5082 27.633 55.4401 28.4243Z" fill="#9DA4AE"/>
<path id="Vector_4" fill-rule="evenodd" clip-rule="evenodd" d="M58.15 25.3386C57.3191 24.2704 52.651 24.8242 50.5345 25.0813C49.9016 25.1605 49.8026 24.6067 50.3762 24.1912C54.095 21.5803 60.2071 22.332 60.9191 23.2023C61.6312 24.0924 60.7214 30.2044 57.2401 33.132C56.7059 33.5869 56.1917 33.3495 56.429 32.7561C57.2203 30.7978 58.9807 26.3869 58.15 25.3386Z" fill="#9DA4AE"/>
</g>
</g>
</g>
</g>
<defs>
<clipPath id="clip0_11_279">
<rect width="61.5" height="36" fill="white" transform="translate(0.5)"/>
</clipPath>
</defs>
</svg>
