<svg width="140" height="36" viewBox="0 0 140 36" fill="none" xmlns="http://www.w3.org/2000/svg">
<g id="SVG" clip-path="url(#clip0_11_287)">
<g id="Clip path group">
<mask id="mask0_11_287" style="mask-type:luminance" maskUnits="userSpaceOnUse" x="0" y="0" width="139" height="36">
<g id="clip0_11275_169474">
<path id="Vector" d="M138.75 0H0.75V36H138.75V0Z" fill="white"/>
</g>
</mask>
<g mask="url(#mask0_11_287)">
<g id="Group">
<path id="Vector_2" d="M80.5917 10.0465L88.4614 7.11629L80.5917 4.10232V0L94.0707 5.44186V8.79069L80.5917 14.2326V10.0465Z" fill="#9DA4AE"/>
<path id="Vector_3" d="M6.16372 36C3.3172 36 0.973022 34.5766 0.973022 31.3953V31.2279C0.973022 27.3766 4.32186 26.0371 8.42418 26.0371H10.3498V25.2837C10.3498 23.6929 9.67999 22.7721 8.00557 22.7721C6.4986 22.7721 5.74512 23.6092 5.66139 24.7813H1.47535C1.81023 21.265 4.57302 19.5906 8.25675 19.5906C12.0242 19.5906 14.787 21.1813 14.787 25.1163V35.665H10.5172V33.8232C9.67999 34.9953 8.25675 36 6.16372 36ZM10.3498 30.4743V28.9674H8.59162C6.41488 28.9674 5.32651 29.5534 5.32651 30.9766V31.1442C5.32651 32.2324 5.99628 32.986 7.50325 32.986C9.01023 32.9023 10.3498 32.065 10.3498 30.4743ZM24.7497 36C20.3962 36 17.2149 33.3208 17.2149 27.9627V27.7116C17.2149 22.3534 20.5637 19.5069 24.7497 19.5069C28.3497 19.5069 31.2799 21.3487 31.6149 25.4511H27.4289C27.1777 23.9442 26.3405 22.9395 24.8335 22.9395C22.9917 22.9395 21.6521 24.4464 21.6521 27.5442V28.0464C21.6521 31.2279 22.8242 32.6511 24.8335 32.6511C26.3405 32.6511 27.4289 31.5627 27.68 29.8045H31.6986C31.4475 33.4884 29.0196 36 24.7497 36ZM41.1591 36C36.8056 36 33.6241 33.3208 33.6241 27.9627V27.7116C33.6241 22.3534 36.973 19.5069 41.1591 19.5069C44.7591 19.5069 47.6894 21.3487 48.0242 25.4511H43.8381C43.587 23.9442 42.7497 22.9395 41.2428 22.9395C39.4009 22.9395 38.0615 24.4464 38.0615 27.5442V28.0464C38.0615 31.2279 39.2335 32.6511 41.2428 32.6511C42.7497 32.6511 43.8381 31.5627 44.0894 29.8045H48.1078C47.8568 33.4884 45.4288 36 41.1591 36ZM57.6521 36C53.1312 36 50.0336 33.3208 50.0336 28.0464V27.7116C50.0336 22.4371 53.2986 19.5069 57.5683 19.5069C61.5033 19.5069 64.7684 21.6837 64.7684 26.9581V28.8837H54.4707C54.6381 31.7302 55.8939 32.8185 57.7358 32.8185C59.4102 32.8185 60.3312 31.8976 60.666 30.8092H64.7684C64.266 33.7395 61.7544 36 57.6521 36ZM54.5544 25.9534H60.4149C60.3312 23.6092 59.2428 22.6045 57.4846 22.6045C56.1452 22.6884 54.8893 23.4418 54.5544 25.9534ZM67.4475 19.9255H71.8847V22.2697C72.6381 20.7627 74.2289 19.5906 76.6568 19.5906C79.5033 19.5906 81.4288 21.3487 81.4288 25.1163V35.665H76.9917V25.786C76.9917 23.9442 76.2381 23.1069 74.6475 23.1069C73.1404 23.1069 71.8847 24.0279 71.8847 26.0371V35.665H67.4475V19.9255ZM89.5497 15.1534V19.9255H92.5638V23.1906H89.5497V30.6418C89.5497 31.8139 90.052 32.4 91.1404 32.4C91.8102 32.4 92.2289 32.3163 92.6475 32.1487V35.5813C92.1451 35.7487 91.2242 35.9163 90.1357 35.9163C86.7033 35.9163 85.1125 34.3255 85.1125 31.1442V23.1906H83.2707V19.9255H85.1125V16.9953L89.5497 15.1534ZM109.14 35.665H104.787V33.3208C104.034 34.8279 102.526 36 100.182 36C97.3358 36 95.2428 34.2418 95.2428 30.5581V19.9255H99.6799V29.9721C99.6799 31.8139 100.434 32.6511 101.94 32.6511C103.447 32.6511 104.703 31.6464 104.703 29.7208V19.9255H109.14V35.665ZM112.406 19.9255H116.843V22.8558C117.764 20.7627 119.271 19.7581 121.615 19.7581V24.1116C118.601 24.1116 116.843 25.0324 116.843 27.6279V35.7487H112.406V19.9255ZM130.573 36C126.052 36 122.954 33.3208 122.954 28.0464V27.7116C122.954 22.4371 126.22 19.5069 130.489 19.5069C134.424 19.5069 137.689 21.6837 137.689 26.9581V28.8837H127.475C127.643 31.7302 128.899 32.8185 130.74 32.8185C132.415 32.8185 133.336 31.8976 133.671 30.8092H137.773C137.103 33.7395 134.675 36 130.573 36ZM127.392 25.9534H133.336C133.252 23.6092 132.164 22.6045 130.406 22.6045C129.066 22.6884 127.81 23.4418 127.392 25.9534Z" fill="#9DA4AE"/>
</g>
</g>
</g>
</g>
<defs>
<clipPath id="clip0_11_287">
<rect width="139.5" height="36" fill="white"/>
</clipPath>
</defs>
</svg>
