<svg width="137" height="28" viewBox="0 0 137 28" fill="none" xmlns="http://www.w3.org/2000/svg">
<g id="SVG" clip-path="url(#clip0_11_266)">
<g id="Clip path group">
<mask id="mask0_11_266" style="mask-type:luminance" maskUnits="userSpaceOnUse" x="1" y="0" width="136" height="28">
<g id="clip0_11275_169465">
<path id="Vector" d="M136.25 0.5H1.25V27.5H136.25V0.5Z" fill="white"/>
</g>
</mask>
<g mask="url(#mask0_11_266)">
<g id="Group">
<path id="Vector_2" fill-rule="evenodd" clip-rule="evenodd" d="M15.6035 1.58069C22.8674 2.28372 30.8343 5.91525 35.4041 11.188C41.2619 17.8661 39.2708 24.5449 30.9515 26.0674C22.6331 27.7078 11.1509 23.4904 5.29312 16.8115C0.84056 11.6559 0.958555 6.50112 5.05877 3.6898L28.1393 20.7953L15.6035 1.58069Z" fill="#9DA4AE"/>
<path id="Vector_3" fill-rule="evenodd" clip-rule="evenodd" d="M129.952 26.0673L127.023 14.3508C126.67 12.9456 126.437 11.5395 126.203 10.2506H126.085C125.852 11.6567 125.734 12.9456 125.382 14.468L122.452 26.0673H117.414L124.093 1.69782H128.077L135.107 26.0673H129.952ZM53.0948 1.69782L56.0242 13.4134C56.4929 14.8195 56.6101 16.2264 56.8444 17.5137H56.9615C57.196 16.1084 57.3131 14.7015 57.6646 13.2963L60.5939 1.69782H65.6315L58.9535 26.0673H54.9697L47.9401 1.69782H53.0948ZM69.2623 1.69782H74.0663V26.0673H69.2623V1.69782ZM101.249 1.69782L103.708 16.1093L105.7 1.69782H112.143L114.604 26.0673H109.684L108.512 8.49301L107.692 14.468L105.7 26.0673H101.951L99.6074 14.3508L98.7872 8.9617V8.49301H98.6701L97.967 26.0673H92.8115L94.9214 1.69782H101.249ZM86.0171 1.69782C85.1969 2.28368 84.6118 3.3374 84.1432 4.39196C82.8542 7.32128 84.2596 9.66391 85.4312 11.773C85.5493 12.0074 85.7843 12.3589 85.9 12.7104C88.5949 17.1621 89.5322 20.4422 87.6583 25.1282L87.1897 26.0664H81.331C82.034 25.4798 82.7363 24.6612 83.0878 23.723C84.4946 20.5593 82.8542 17.6309 81.331 14.7007C79.5742 11.3035 77.6987 7.78915 79.6906 2.98507C79.8086 2.51638 80.2772 1.69617 80.2772 1.69617H86.0171V1.69782Z" fill="#9DA4AE"/>
</g>
</g>
</g>
</g>
<defs>
<clipPath id="clip0_11_266">
<rect width="136.5" height="27" fill="white" transform="translate(0.5 0.5)"/>
</clipPath>
</defs>
</svg>
