<svg width="56" height="56" viewBox="0 0 56 56" fill="none" xmlns="http://www.w3.org/2000/svg">
<path d="M28 56C43.464 56 56 43.464 56 28C56 12.536 43.464 0 28 0C12.536 0 0 12.536 0 28C0 43.464 12.536 56 28 56Z" fill="url(#paint0_linear_570_89)"/>
<path d="M28 53.893C42.3003 53.893 53.893 42.3003 53.893 28C53.893 13.6996 42.3003 2.10693 28 2.10693C13.6997 2.10693 2.10698 13.6996 2.10698 28C2.10698 42.3003 13.6997 53.893 28 53.893Z" fill="url(#paint1_linear_570_89)"/>
<path d="M40.5145 36.2851C37.3078 34.1361 37.1469 29.9668 37.1461 29.9405V25.1592C37.1455 23.2173 36.5264 21.326 35.3785 19.7597C34.2306 18.1933 32.6136 17.0334 30.762 16.448V14.9106C30.762 14.205 30.4816 13.5282 29.9827 13.0293C29.4837 12.5303 28.807 12.25 28.1013 12.25C27.3957 12.25 26.719 12.5303 26.22 13.0293C25.721 13.5282 25.4407 14.205 25.4407 14.9106V16.3867C23.5374 16.9323 21.8641 18.0843 20.6753 19.6677C19.4864 21.2511 18.8469 23.1792 18.8538 25.1592L18.8541 29.9256C18.853 29.9674 18.7064 34.1263 15.4857 36.2851C15.1258 36.5367 14.855 36.896 14.7123 37.3114C14.5696 37.7267 14.5624 38.1766 14.6918 38.5963C14.8211 39.016 15.0802 39.3838 15.4319 39.6468C15.7836 39.9099 16.2096 40.0545 16.6487 40.0599L23.8117 40.06C23.9938 41.0937 24.5343 42.0303 25.3384 42.7051C26.1424 43.3798 27.1585 43.7497 28.2082 43.7497C29.2578 43.7497 30.2739 43.3798 31.078 42.7051C31.882 42.0303 32.4225 41.0937 32.6046 40.06H39.3511C39.791 40.0561 40.2183 39.9124 40.571 39.6495C40.9238 39.3867 41.1838 39.0184 41.3134 38.598C41.443 38.1776 41.4354 37.7269 41.2918 37.3111C41.1482 36.8952 40.8759 36.5359 40.5145 36.2851ZM28.1013 13.3747C28.5081 13.3767 28.8976 13.5392 29.1851 13.8268C29.4727 14.1144 29.6351 14.5039 29.637 14.9106V16.1657C28.6224 15.9827 27.5844 15.9703 26.5657 16.129V14.9106C26.5661 14.5034 26.728 14.1131 27.0159 13.8251C27.3038 13.5372 27.6942 13.3752 28.1013 13.3747ZM28.2082 42.6247C27.4564 42.6259 26.7263 42.3733 26.136 41.9079C25.5457 41.4424 25.1298 40.7913 24.9557 40.06H31.4607C31.2866 40.7913 30.8707 41.4424 30.2804 41.9079C29.6901 42.3734 28.9599 42.626 28.2082 42.6247ZM40.0267 38.6565C39.8469 38.8346 39.6042 38.9346 39.3511 38.935H16.6486C16.4471 38.9367 16.2504 38.8736 16.0875 38.755C15.9247 38.6363 15.8043 38.4684 15.7442 38.2761C15.6841 38.0838 15.6874 37.8772 15.7538 37.6869C15.8201 37.4966 15.9459 37.3328 16.1125 37.2195C19.8105 34.7404 19.9737 30.1498 19.9789 29.9405V25.1592C19.9789 23.0319 20.824 20.9917 22.3282 19.4875C23.073 18.7426 23.9573 18.1518 24.9304 17.7487C25.9036 17.3456 26.9466 17.1381 28 17.1381C29.0533 17.1381 30.0964 17.3456 31.0695 17.7487C32.0427 18.1518 32.9269 18.7427 33.6718 19.4875C34.4166 20.2323 35.0074 21.1166 35.4105 22.0897C35.8136 23.0629 36.0211 24.1059 36.0211 25.1593L36.0211 29.9553C36.0266 30.1498 36.1898 34.7404 39.8877 37.2195C40.0003 37.2981 40.0944 37.4001 40.1637 37.5186C40.2329 37.6372 40.2756 37.7693 40.2888 37.9059C40.302 38.0425 40.2854 38.1804 40.2402 38.31C40.1949 38.4395 40.1221 38.5578 40.0267 38.6565Z" fill="#333333"/>
<path d="M43.0677 16.5026C42.6188 15.5269 41.9808 14.6499 41.1907 13.9224C40.4005 13.195 39.4739 12.6315 38.4645 12.2646C38.3253 12.2166 38.1728 12.2251 38.0398 12.2883C37.9068 12.3514 37.8039 12.4642 37.7531 12.6025C37.7024 12.7407 37.7078 12.8933 37.7683 13.0275C37.8288 13.1617 37.9395 13.2669 38.0767 13.3204C39.8271 13.9706 41.2497 15.2863 42.0344 16.9807C42.8192 18.6751 42.9025 20.611 42.2662 22.3666C42.2405 22.436 42.2288 22.5097 42.2316 22.5837C42.2345 22.6576 42.2519 22.7303 42.2829 22.7974C42.3138 22.8646 42.3578 22.9251 42.4121 22.9752C42.4665 23.0254 42.5303 23.0644 42.5997 23.0899C42.6692 23.1154 42.743 23.127 42.8169 23.1239C42.8908 23.1208 42.9634 23.1032 43.0305 23.072C43.0976 23.0409 43.1579 22.9968 43.208 22.9423C43.258 22.8877 43.2968 22.8239 43.3221 22.7544C43.6952 21.7472 43.8649 20.6761 43.8212 19.603C43.7775 18.5299 43.5215 17.4761 43.0677 16.5026Z" fill="#333333"/>
<path d="M36.9418 16.4077C37.8775 16.7527 38.6382 17.4546 39.0573 18.3596C39.4764 19.2646 39.5196 20.2988 39.1775 21.2356C39.1266 21.3759 39.1336 21.5306 39.1969 21.6658C39.2601 21.801 39.3745 21.9054 39.5148 21.9563C39.6551 22.0071 39.8098 22.0002 39.945 21.9369C40.0801 21.8737 40.1846 21.7593 40.2355 21.619C40.6784 20.403 40.6217 19.0611 40.0777 17.8868C39.5338 16.7125 38.5469 15.8014 37.3329 15.353C37.1931 15.3015 37.0387 15.3076 36.9034 15.3699C36.7681 15.4322 36.6631 15.5456 36.6113 15.6852C36.5595 15.8249 36.5652 15.9793 36.6272 16.1148C36.6891 16.2502 36.8023 16.3555 36.9418 16.4077Z" fill="#333333"/>
<path d="M17.9236 13.3202C18.0607 13.2666 18.1712 13.1614 18.2316 13.0273C18.292 12.8931 18.2974 12.7405 18.2467 12.6024C18.196 12.4643 18.0931 12.3515 17.9602 12.2884C17.8273 12.2252 17.6749 12.2166 17.5358 12.2645C15.5061 13.0186 13.8567 14.5443 12.9468 16.509C12.0369 18.4738 11.9403 20.7185 12.678 22.7542C12.7314 22.8916 12.8366 23.0025 12.971 23.0631C13.1053 23.1237 13.2581 23.1292 13.3964 23.0784C13.5348 23.0276 13.6476 22.9246 13.7108 22.7914C13.774 22.6583 13.7824 22.5056 13.7343 22.3663C13.0978 20.6108 13.181 18.6749 13.9657 16.9804C14.7505 15.286 16.1731 13.9703 17.9236 13.3202Z" fill="#333333"/>
<path d="M15.9222 17.8866C15.6516 18.4678 15.4984 19.0967 15.4714 19.7373C15.4445 20.3778 15.5443 21.0174 15.7651 21.6192C15.7903 21.6887 15.829 21.7524 15.8789 21.8069C15.9288 21.8614 15.9889 21.9055 16.0559 21.9368C16.1228 21.968 16.1953 21.9858 16.2691 21.989C16.3429 21.9923 16.4166 21.9809 16.4861 21.9557C16.5555 21.9304 16.6193 21.8918 16.6738 21.8419C16.7282 21.792 16.7724 21.7318 16.8036 21.6649C16.8348 21.5979 16.8526 21.5255 16.8558 21.4517C16.8591 21.3779 16.8478 21.3041 16.8225 21.2347C16.4854 20.2977 16.531 19.2657 16.9495 18.3621C17.368 17.4585 18.1256 16.7562 19.0583 16.4073C19.1972 16.3547 19.3096 16.2494 19.3711 16.1142C19.4326 15.979 19.4381 15.825 19.3865 15.6857C19.3348 15.5465 19.2302 15.4333 19.0955 15.3709C18.9607 15.3085 18.8067 15.3019 18.6671 15.3526C18.0653 15.5735 17.513 15.911 17.0419 16.3458C16.5708 16.7807 16.1903 17.3043 15.9222 17.8866Z" fill="#333333"/>
<defs>
<linearGradient id="paint0_linear_570_89" x1="0" y1="28" x2="56.0127" y2="28" gradientUnits="userSpaceOnUse">
<stop stop-color="white"/>
<stop offset="0.85" stop-color="#D2D2D2"/>
</linearGradient>
<linearGradient id="paint1_linear_570_89" x1="2.43699" y1="28" x2="49.4379" y2="28" gradientUnits="userSpaceOnUse">
<stop offset="0.15" stop-color="#DDDDDD"/>
<stop offset="1" stop-color="white"/>
</linearGradient>
</defs>
</svg>
