<svg width="48" height="48" viewBox="0 0 48 48" fill="none" xmlns="http://www.w3.org/2000/svg">
<rect width="48" height="48" rx="24" fill="#667085" fill-opacity="0.07"/>
<path d="M27.1937 35.8115C27.121 35.8115 27.0494 35.7938 26.9851 35.76L24 34.1903L21.0149 35.76C20.9409 35.7989 20.8575 35.8164 20.7741 35.8104C20.6907 35.8044 20.6106 35.7751 20.5429 35.726C20.4753 35.6768 20.4227 35.6097 20.3912 35.5323C20.3597 35.4548 20.3506 35.3701 20.3647 35.2876L20.9348 31.9635L18.5195 29.6095C18.4596 29.5512 18.4172 29.4772 18.3971 29.396C18.3771 29.3148 18.3801 29.2296 18.406 29.1501C18.4318 29.0705 18.4794 28.9998 18.5434 28.9459C18.6073 28.892 18.6851 28.8571 18.7679 28.8451L22.1055 28.3602L23.5982 25.3362C23.6352 25.2612 23.6924 25.198 23.7634 25.1539C23.8344 25.1097 23.9164 25.0863 24 25.0863C24.0836 25.0863 24.1655 25.1097 24.2366 25.1539C24.3076 25.198 24.3648 25.2612 24.4018 25.3362L25.8945 28.3602L29.2321 28.844C29.3148 28.856 29.3926 28.8909 29.4566 28.9448C29.5206 28.9987 29.5682 29.0694 29.594 29.1489C29.6198 29.2285 29.6229 29.3137 29.6028 29.3949C29.5828 29.4761 29.5404 29.5501 29.4804 29.6084L27.0651 31.9624L27.6352 35.2865C27.6463 35.3508 27.6431 35.4168 27.626 35.4798C27.6089 35.5427 27.5783 35.6012 27.5362 35.6511C27.4942 35.701 27.4417 35.7411 27.3826 35.7686C27.3234 35.7962 27.2589 35.8104 27.1937 35.8104V35.8115ZM24 33.2364C24.0727 33.2364 24.1443 33.254 24.2086 33.2879L26.5987 34.5445L26.1423 31.8828C26.13 31.8113 26.1353 31.7378 26.1577 31.6687C26.1802 31.5996 26.2191 31.5371 26.2711 31.4864L28.2047 29.6014L25.5324 29.213C25.4605 29.2026 25.3923 29.1749 25.3335 29.1322C25.2747 29.0895 25.2272 29.0332 25.195 28.968L24 26.5463L22.8049 28.968C22.7728 29.0332 22.7253 29.0895 22.6665 29.1322C22.6077 29.1749 22.5394 29.2026 22.4675 29.213L19.7952 29.6014L21.7289 31.4864C21.7809 31.5371 21.8198 31.5996 21.8422 31.6687C21.8647 31.7378 21.87 31.8113 21.8577 31.8828L21.4013 34.5445L23.7914 33.2879C23.8557 33.254 23.9273 33.2364 24 33.2364Z" fill="#454545" stroke="#454545" stroke-width="0.3"/>
<path d="M13.9552 32.8298C13.89 32.8298 13.8255 32.8156 13.7663 32.788C13.7071 32.7605 13.6547 32.7204 13.6126 32.6705C13.5706 32.6206 13.5399 32.5621 13.5228 32.4992C13.5057 32.4362 13.5026 32.3702 13.5137 32.3059L14.0227 29.3379L11.8667 27.2379C11.8068 27.1796 11.7644 27.1056 11.7443 27.0244C11.7242 26.9432 11.7273 26.858 11.7531 26.7785C11.779 26.6989 11.8266 26.6282 11.8905 26.5743C11.9545 26.5204 12.0323 26.4855 12.1151 26.4735L15.094 26.0412L16.4262 23.3423C16.4632 23.2673 16.5205 23.2042 16.5915 23.16C16.6625 23.1159 16.7444 23.0925 16.828 23.0925C16.9116 23.0925 16.9936 23.1159 17.0646 23.16C17.1356 23.2042 17.1928 23.2673 17.2298 23.3423L18.5621 26.0415L21.5404 26.4741C21.6232 26.4861 21.701 26.521 21.7649 26.5749C21.8289 26.6288 21.8765 26.6995 21.9024 26.779C21.9282 26.8586 21.9313 26.9438 21.9112 27.025C21.8911 27.1062 21.8487 27.1801 21.7888 27.2385L19.5857 29.3855C19.5857 29.3892 19.5832 29.3931 19.5818 29.3967C19.6325 29.4573 19.6662 29.5303 19.6795 29.6081L20.1421 32.3059C20.1563 32.3883 20.1471 32.4731 20.1156 32.5505C20.0841 32.628 20.0316 32.6951 19.9639 32.7443C19.8963 32.7934 19.8162 32.8227 19.7328 32.8287C19.6494 32.8347 19.5659 32.8172 19.4919 32.7783L16.828 31.3783L14.1638 32.7783C14.0995 32.8121 14.0279 32.8298 13.9552 32.8298ZM16.828 30.4235C16.9007 30.4235 16.9723 30.4412 17.0366 30.475L19.1055 31.5628L18.7975 29.7596C18.7842 29.6819 18.7917 29.602 18.8191 29.528C18.7681 29.4671 18.7343 29.3936 18.7211 29.3152L18.7113 29.2573C18.6993 29.1859 18.7047 29.1126 18.7272 29.0437C18.7497 28.9749 18.7885 28.9125 18.8404 28.8619L20.5142 27.2304L18.333 26.9134L18.3159 26.912L18.2 26.8952C18.128 26.8849 18.0596 26.8572 18.0008 26.8145C17.9419 26.7718 17.8943 26.7154 17.8621 26.6502L16.8275 24.5538L15.7915 26.6502C15.7594 26.7152 15.7121 26.7714 15.6536 26.814C15.5951 26.8567 15.5271 26.8846 15.4555 26.8952L13.1421 27.2312L14.8159 28.8619C14.8679 28.9126 14.9068 28.9752 14.9293 29.0443C14.9517 29.1133 14.957 29.1868 14.9447 29.2584L14.5494 31.5628L16.6189 30.475C16.6833 30.441 16.7551 30.4233 16.828 30.4235Z" fill="#454545" stroke="#454545" stroke-width="0.3"/>
<path d="M34.0446 32.8295C33.972 32.8296 33.9004 32.812 33.836 32.7783L31.1718 31.3783L28.5079 32.7783C28.4339 32.8172 28.3505 32.8347 28.2671 32.8287C28.1837 32.8227 28.1036 32.7934 28.036 32.7443C27.9683 32.6951 27.9158 32.628 27.8843 32.5505C27.8528 32.4731 27.8436 32.3883 27.8578 32.3059L28.3203 29.6081C28.3335 29.5302 28.3672 29.4572 28.418 29.3967C28.418 29.3928 28.4152 29.3892 28.4141 29.3852L26.2119 27.2382C26.1521 27.1798 26.1097 27.1059 26.0897 27.0247C26.0697 26.9436 26.0728 26.8584 26.0986 26.7789C26.1244 26.6994 26.172 26.6288 26.2359 26.5749C26.2998 26.521 26.3775 26.4861 26.4603 26.4741L29.4378 26.0412L30.77 23.342C30.807 23.267 30.8643 23.2039 30.9353 23.1597C31.0063 23.1155 31.0882 23.0921 31.1718 23.0921C31.2555 23.0921 31.3374 23.1155 31.4084 23.1597C31.4794 23.2039 31.5367 23.267 31.5736 23.342L32.9059 26.0412L35.8845 26.4741C35.9672 26.4861 36.045 26.521 36.1089 26.5749C36.1728 26.6288 36.2204 26.6994 36.2462 26.7789C36.272 26.8584 36.2751 26.9436 36.2551 27.0247C36.2351 27.1059 36.1927 27.1798 36.1329 27.2382L33.9769 29.3382L34.4859 32.3062C34.4969 32.3705 34.4938 32.4364 34.4766 32.4994C34.4595 32.5623 34.4289 32.6207 34.3868 32.6706C34.3448 32.7205 34.2923 32.7606 34.2332 32.7881C34.174 32.8155 34.1096 32.8298 34.0444 32.8298L34.0446 32.8295ZM29.1819 29.5278C29.2094 29.6018 29.2168 29.6818 29.2034 29.7596L28.8954 31.5628L30.9644 30.4747C31.0286 30.4409 31.1002 30.4233 31.1728 30.4233C31.2454 30.4233 31.317 30.4409 31.3813 30.4747L33.4508 31.5628L33.0554 29.2584C33.0431 29.1868 33.0484 29.1133 33.0709 29.0443C33.0933 28.9752 33.1322 28.9126 33.1842 28.8619L34.8583 27.2304L32.545 26.8944C32.4733 26.8837 32.4053 26.8559 32.3468 26.8132C32.2883 26.7705 32.241 26.7143 32.209 26.6494L31.173 24.553L30.1384 26.6494C30.1062 26.7145 30.0587 26.7708 29.9999 26.8135C29.9411 26.8562 29.8728 26.8839 29.801 26.8944L27.4876 27.2304L29.1617 28.8619C29.2136 28.9125 29.2524 28.9749 29.2749 29.0437C29.2974 29.1126 29.3028 29.1859 29.2908 29.2573L29.281 29.3152C29.2675 29.3937 29.2333 29.467 29.1819 29.5278Z" fill="#454545" stroke="#454545" stroke-width="0.3"/>
<path d="M29.6035 26.9179C29.4852 26.9179 29.3718 26.8711 29.2878 26.7878C29.2039 26.7044 29.1563 26.5912 29.1555 26.473C29.13 23.7718 26.9113 21.573 24.209 21.573H23.7907C21.0882 21.573 18.8692 23.771 18.8442 26.473C18.8438 26.5918 18.7961 26.7055 18.7117 26.7892C18.6274 26.8729 18.5132 26.9196 18.3944 26.9191C18.2756 26.9187 18.1618 26.871 18.0782 26.7866C17.9945 26.7023 17.9478 26.5881 17.9482 26.4693V26.4648C17.9626 24.9248 18.5845 23.4528 19.6787 22.3689C20.7728 21.2851 22.2506 20.6771 23.7907 20.6772H24.209C25.7491 20.6771 27.227 21.2851 28.3211 22.3689C29.4152 23.4528 30.0371 24.9248 30.0515 26.4648V26.469C30.0516 26.5279 30.0401 26.5863 30.0177 26.6407C29.9952 26.6952 29.9622 26.7447 29.9206 26.7864C29.879 26.8281 29.8296 26.8611 29.7752 26.8837C29.7208 26.9063 29.6624 26.9179 29.6035 26.9179Z" fill="#454545" stroke="#454545" stroke-width="0.3"/>
<path d="M24.0001 19.9904C21.8491 19.9904 20.0991 18.2404 20.0991 16.0894C20.0991 13.9385 21.8491 12.1885 24.0001 12.1885C26.151 12.1885 27.901 13.9385 27.901 16.0894C27.901 18.2404 26.151 19.9904 24.0001 19.9904ZM24.0001 13.0845C23.4058 13.0845 22.8248 13.2607 22.3306 13.5909C21.8365 13.9211 21.4513 14.3904 21.2239 14.9395C20.9964 15.4886 20.9369 16.0928 21.0529 16.6757C21.1688 17.2586 21.455 17.794 21.8753 18.2143C22.2955 18.6345 22.8309 18.9207 23.4138 19.0367C23.9967 19.1526 24.6009 19.0931 25.15 18.8657C25.6991 18.6382 26.1684 18.2531 26.4986 17.7589C26.8288 17.2647 27.005 16.6838 27.005 16.0894C27.0042 15.2927 26.6873 14.5289 26.1239 13.9656C25.5606 13.4022 24.7968 13.0854 24.0001 13.0845Z" fill="#454545" stroke="#454545" stroke-width="0.3"/>
</svg>
