<svg width="48" height="48" viewBox="0 0 48 48" fill="none" xmlns="http://www.w3.org/2000/svg">
<rect width="48" height="48" rx="24" fill="#667085" fill-opacity="0.07"/>
<path d="M28.48 34.64C28.3314 34.64 28.189 34.581 28.084 34.476C27.979 34.371 27.92 34.2285 27.92 34.08V16.5061L24 14.5461L20.08 16.5061V34.08C20.08 34.2285 20.021 34.371 19.9159 34.476C19.8109 34.581 19.6685 34.64 19.52 34.64C19.3714 34.64 19.229 34.581 19.124 34.476C19.019 34.371 18.96 34.2285 18.96 34.08V16.16C18.96 16.0561 18.9889 15.9542 19.0435 15.8658C19.0981 15.7774 19.1762 15.7059 19.2691 15.6594L23.7491 13.4194C23.827 13.3803 23.9129 13.36 24 13.36C24.0871 13.36 24.173 13.3803 24.2508 13.4194L28.7308 15.6594C28.8237 15.7059 28.9019 15.7774 28.9564 15.8658C29.011 15.9542 29.04 16.0561 29.04 16.16V34.08C29.04 34.2285 28.981 34.371 28.8759 34.476C28.7709 34.581 28.6285 34.64 28.48 34.64Z" fill="#454545"/>
<path d="M25.1201 34.64C24.9715 34.64 24.8291 34.581 24.7241 34.476C24.6191 34.371 24.5601 34.2285 24.5601 34.08V31.2464H23.4401V34.08C23.4401 34.2285 23.3811 34.371 23.276 34.476C23.171 34.581 23.0286 34.64 22.8801 34.64C22.7315 34.64 22.5891 34.581 22.4841 34.476C22.3791 34.371 22.3201 34.2285 22.3201 34.08V30.6864C22.3201 30.5379 22.3791 30.3954 22.4841 30.2904C22.5891 30.1854 22.7315 30.1264 22.8801 30.1264H25.1201C25.2686 30.1264 25.411 30.1854 25.516 30.2904C25.6211 30.3954 25.6801 30.5379 25.6801 30.6864V34.08C25.6801 34.2285 25.6211 34.371 25.516 34.476C25.411 34.581 25.2686 34.64 25.1201 34.64Z" fill="#454545"/>
<path d="M34.0799 34.64C33.9314 34.64 33.789 34.581 33.6839 34.476C33.5789 34.371 33.5199 34.2285 33.5199 34.08V18.96H28.4799C28.3314 18.96 28.189 18.901 28.0839 18.796C27.9789 18.691 27.9199 18.5485 27.9199 18.4C27.9199 18.2515 27.9789 18.109 28.0839 18.004C28.189 17.899 28.3314 17.84 28.4799 17.84H34.0799C34.2284 17.84 34.3709 17.899 34.4759 18.004C34.5809 18.109 34.6399 18.2515 34.6399 18.4V34.08C34.6399 34.2285 34.5809 34.371 34.4759 34.476C34.3709 34.581 34.2284 34.64 34.0799 34.64Z" fill="#454545"/>
<path d="M35.2 34.64H12.8C12.6515 34.64 12.509 34.581 12.404 34.476C12.299 34.371 12.24 34.2285 12.24 34.08C12.24 33.9315 12.299 33.789 12.404 33.684C12.509 33.579 12.6515 33.52 12.8 33.52H35.2C35.3485 33.52 35.4909 33.579 35.596 33.684C35.701 33.789 35.76 33.9315 35.76 34.08C35.76 34.2285 35.701 34.371 35.596 34.476C35.4909 34.581 35.3485 34.64 35.2 34.64Z" fill="#454545"/>
<path d="M22.88 26.8H21.76C21.6114 26.8 21.469 26.741 21.364 26.636C21.259 26.531 21.2 26.3885 21.2 26.24C21.2 26.0915 21.259 25.949 21.364 25.844C21.469 25.739 21.6114 25.68 21.76 25.68H22.88C23.0285 25.68 23.1709 25.739 23.2759 25.844C23.381 25.949 23.44 26.0915 23.44 26.24C23.44 26.3885 23.381 26.531 23.2759 26.636C23.1709 26.741 23.0285 26.8 22.88 26.8Z" fill="#454545"/>
<path d="M22.88 29.04H21.76C21.6114 29.04 21.469 28.981 21.364 28.876C21.259 28.771 21.2 28.6285 21.2 28.48C21.2 28.3315 21.259 28.189 21.364 28.084C21.469 27.979 21.6114 27.92 21.76 27.92H22.88C23.0285 27.92 23.1709 27.979 23.2759 28.084C23.381 28.189 23.44 28.3315 23.44 28.48C23.44 28.6285 23.381 28.771 23.2759 28.876C23.1709 28.981 23.0285 29.04 22.88 29.04Z" fill="#454545"/>
<path d="M26.2401 26.8H25.1201C24.9715 26.8 24.8291 26.741 24.7241 26.636C24.6191 26.531 24.5601 26.3885 24.5601 26.24C24.5601 26.0915 24.6191 25.949 24.7241 25.844C24.8291 25.739 24.9715 25.68 25.1201 25.68H26.2401C26.3886 25.68 26.531 25.739 26.636 25.844C26.7411 25.949 26.8001 26.0915 26.8001 26.24C26.8001 26.3885 26.7411 26.531 26.636 26.636C26.531 26.741 26.3886 26.8 26.2401 26.8Z" fill="#454545"/>
<path d="M22.88 24.56H21.76C21.6114 24.56 21.469 24.501 21.364 24.396C21.259 24.291 21.2 24.1485 21.2 24C21.2 23.8515 21.259 23.709 21.364 23.604C21.469 23.499 21.6114 23.44 21.76 23.44H22.88C23.0285 23.44 23.1709 23.499 23.2759 23.604C23.381 23.709 23.44 23.8515 23.44 24C23.44 24.1485 23.381 24.291 23.2759 24.396C23.1709 24.501 23.0285 24.56 22.88 24.56Z" fill="#454545"/>
<path d="M26.2401 24.56H25.1201C24.9715 24.56 24.8291 24.501 24.7241 24.396C24.6191 24.291 24.5601 24.1485 24.5601 24C24.5601 23.8515 24.6191 23.709 24.7241 23.604C24.8291 23.499 24.9715 23.44 25.1201 23.44H26.2401C26.3886 23.44 26.531 23.499 26.636 23.604C26.7411 23.709 26.8001 23.8515 26.8001 24C26.8001 24.1485 26.7411 24.291 26.636 24.396C26.531 24.501 26.3886 24.56 26.2401 24.56Z" fill="#454545"/>
<path d="M31.8399 23.44H30.7199C30.5714 23.44 30.429 23.381 30.3239 23.276C30.2189 23.171 30.1599 23.0285 30.1599 22.88C30.1599 22.7315 30.2189 22.589 30.3239 22.484C30.429 22.379 30.5714 22.32 30.7199 22.32H31.8399C31.9884 22.32 32.1309 22.379 32.2359 22.484C32.3409 22.589 32.3999 22.7315 32.3999 22.88C32.3999 23.0285 32.3409 23.171 32.2359 23.276C32.1309 23.381 31.9884 23.44 31.8399 23.44Z" fill="#454545"/>
<path d="M31.8399 25.68H30.7199C30.5714 25.68 30.429 25.621 30.3239 25.516C30.2189 25.411 30.1599 25.2685 30.1599 25.12C30.1599 24.9715 30.2189 24.829 30.3239 24.724C30.429 24.619 30.5714 24.56 30.7199 24.56H31.8399C31.9884 24.56 32.1309 24.619 32.2359 24.724C32.3409 24.829 32.3999 24.9715 32.3999 25.12C32.3999 25.2685 32.3409 25.411 32.2359 25.516C32.1309 25.621 31.9884 25.68 31.8399 25.68Z" fill="#454545"/>
<path d="M31.8399 27.92H30.7199C30.5714 27.92 30.429 27.861 30.3239 27.756C30.2189 27.651 30.1599 27.5085 30.1599 27.36C30.1599 27.2115 30.2189 27.069 30.3239 26.964C30.429 26.859 30.5714 26.8 30.7199 26.8H31.8399C31.9884 26.8 32.1309 26.859 32.2359 26.964C32.3409 27.069 32.3999 27.2115 32.3999 27.36C32.3999 27.5085 32.3409 27.651 32.2359 27.756C32.1309 27.861 31.9884 27.92 31.8399 27.92Z" fill="#454545"/>
<path d="M31.8399 30.16H30.7199C30.5714 30.16 30.429 30.101 30.3239 29.996C30.2189 29.891 30.1599 29.7485 30.1599 29.6C30.1599 29.4515 30.2189 29.309 30.3239 29.204C30.429 29.099 30.5714 29.04 30.7199 29.04H31.8399C31.9884 29.04 32.1309 29.099 32.2359 29.204C32.3409 29.309 32.3999 29.4515 32.3999 29.6C32.3999 29.7485 32.3409 29.891 32.2359 29.996C32.1309 30.101 31.9884 30.16 31.8399 30.16Z" fill="#454545"/>
<path d="M31.8399 32.4H30.7199C30.5714 32.4 30.429 32.341 30.3239 32.236C30.2189 32.131 30.1599 31.9885 30.1599 31.84C30.1599 31.6915 30.2189 31.549 30.3239 31.444C30.429 31.339 30.5714 31.28 30.7199 31.28H31.8399C31.9884 31.28 32.1309 31.339 32.2359 31.444C32.3409 31.549 32.3999 31.6915 32.3999 31.84C32.3999 31.9885 32.3409 32.131 32.2359 32.236C32.1309 32.341 31.9884 32.4 31.8399 32.4Z" fill="#454545"/>
<path d="M13.9201 34.64C13.7716 34.64 13.6291 34.581 13.5241 34.476C13.4191 34.371 13.3601 34.2285 13.3601 34.08V18.4C13.3601 18.2515 13.4191 18.109 13.5241 18.004C13.6291 17.899 13.7716 17.84 13.9201 17.84H19.5201C19.6686 17.84 19.8111 17.899 19.9161 18.004C20.0211 18.109 20.0801 18.2515 20.0801 18.4C20.0801 18.5485 20.0211 18.691 19.9161 18.796C19.8111 18.901 19.6686 18.96 19.5201 18.96H14.4801V34.08C14.4801 34.2285 14.4211 34.371 14.3161 34.476C14.2111 34.581 14.0686 34.64 13.9201 34.64Z" fill="#454545"/>
<path d="M17.2801 23.44H16.1601C16.0116 23.44 15.8691 23.381 15.7641 23.276C15.6591 23.171 15.6001 23.0285 15.6001 22.88C15.6001 22.7315 15.6591 22.589 15.7641 22.484C15.8691 22.379 16.0116 22.32 16.1601 22.32H17.2801C17.4286 22.32 17.5711 22.379 17.6761 22.484C17.7811 22.589 17.8401 22.7315 17.8401 22.88C17.8401 23.0285 17.7811 23.171 17.6761 23.276C17.5711 23.381 17.4286 23.44 17.2801 23.44Z" fill="#454545"/>
<path d="M31.8399 21.2H30.7199C30.5714 21.2 30.429 21.141 30.3239 21.036C30.2189 20.931 30.1599 20.7885 30.1599 20.64C30.1599 20.4915 30.2189 20.349 30.3239 20.244C30.429 20.139 30.5714 20.08 30.7199 20.08H31.8399C31.9884 20.08 32.1309 20.139 32.2359 20.244C32.3409 20.349 32.3999 20.4915 32.3999 20.64C32.3999 20.7885 32.3409 20.931 32.2359 21.036C32.1309 21.141 31.9884 21.2 31.8399 21.2Z" fill="#454545"/>
<path d="M17.2801 21.2H16.1601C16.0116 21.2 15.8691 21.141 15.7641 21.036C15.6591 20.931 15.6001 20.7885 15.6001 20.64C15.6001 20.4915 15.6591 20.349 15.7641 20.244C15.8691 20.139 16.0116 20.08 16.1601 20.08H17.2801C17.4286 20.08 17.5711 20.139 17.6761 20.244C17.7811 20.349 17.8401 20.4915 17.8401 20.64C17.8401 20.7885 17.7811 20.931 17.6761 21.036C17.5711 21.141 17.4286 21.2 17.2801 21.2Z" fill="#454545"/>
<path d="M17.2801 25.68H16.1601C16.0116 25.68 15.8691 25.621 15.7641 25.516C15.6591 25.411 15.6001 25.2685 15.6001 25.12C15.6001 24.9715 15.6591 24.829 15.7641 24.724C15.8691 24.619 16.0116 24.56 16.1601 24.56H17.2801C17.4286 24.56 17.5711 24.619 17.6761 24.724C17.7811 24.829 17.8401 24.9715 17.8401 25.12C17.8401 25.2685 17.7811 25.411 17.6761 25.516C17.5711 25.621 17.4286 25.68 17.2801 25.68Z" fill="#454545"/>
<path d="M17.2801 27.92H16.1601C16.0116 27.92 15.8691 27.861 15.7641 27.756C15.6591 27.651 15.6001 27.5085 15.6001 27.36C15.6001 27.2115 15.6591 27.069 15.7641 26.964C15.8691 26.859 16.0116 26.8 16.1601 26.8H17.2801C17.4286 26.8 17.5711 26.859 17.6761 26.964C17.7811 27.069 17.8401 27.2115 17.8401 27.36C17.8401 27.5085 17.7811 27.651 17.6761 27.756C17.5711 27.861 17.4286 27.92 17.2801 27.92Z" fill="#454545"/>
<path d="M17.2801 30.16H16.1601C16.0116 30.16 15.8691 30.101 15.7641 29.996C15.6591 29.891 15.6001 29.7485 15.6001 29.6C15.6001 29.4515 15.6591 29.309 15.7641 29.204C15.8691 29.099 16.0116 29.04 16.1601 29.04H17.2801C17.4286 29.04 17.5711 29.099 17.6761 29.204C17.7811 29.309 17.8401 29.4515 17.8401 29.6C17.8401 29.7485 17.7811 29.891 17.6761 29.996C17.5711 30.101 17.4286 30.16 17.2801 30.16Z" fill="#454545"/>
<path d="M17.2801 32.4H16.1601C16.0116 32.4 15.8691 32.341 15.7641 32.236C15.6591 32.131 15.6001 31.9885 15.6001 31.84C15.6001 31.6915 15.6591 31.549 15.7641 31.444C15.8691 31.339 16.0116 31.28 16.1601 31.28H17.2801C17.4286 31.28 17.5711 31.339 17.6761 31.444C17.7811 31.549 17.8401 31.6915 17.8401 31.84C17.8401 31.9885 17.7811 32.131 17.6761 32.236C17.5711 32.341 17.4286 32.4 17.2801 32.4Z" fill="#454545"/>
<path d="M26.2401 29.04H25.1201C24.9715 29.04 24.8291 28.981 24.7241 28.876C24.6191 28.771 24.5601 28.6285 24.5601 28.48C24.5601 28.3315 24.6191 28.189 24.7241 28.084C24.8291 27.979 24.9715 27.92 25.1201 27.92H26.2401C26.3886 27.92 26.531 27.979 26.636 28.084C26.7411 28.189 26.8001 28.3315 26.8001 28.48C26.8001 28.6285 26.7411 28.771 26.636 28.876C26.531 28.981 26.3886 29.04 26.2401 29.04Z" fill="#454545"/>
<path d="M24.0001 20.08C23.6678 20.08 23.343 19.9815 23.0667 19.7969C22.7904 19.6123 22.5751 19.3499 22.448 19.0429C22.3208 18.7359 22.2875 18.3981 22.3523 18.0723C22.4172 17.7464 22.5772 17.447 22.8121 17.2121C23.0471 16.9771 23.3464 16.8171 23.6723 16.7523C23.9982 16.6875 24.336 16.7207 24.643 16.8479C24.95 16.975 25.2123 17.1904 25.3969 17.4666C25.5815 17.7429 25.6801 18.0677 25.6801 18.4C25.6801 18.8456 25.5031 19.2729 25.188 19.5879C24.8729 19.903 24.4456 20.08 24.0001 20.08ZM24.0001 17.84C23.8893 17.84 23.781 17.8728 23.6889 17.9344C23.5969 17.9959 23.5251 18.0834 23.4827 18.1857C23.4403 18.288 23.4292 18.4006 23.4508 18.5093C23.4724 18.6179 23.5258 18.7177 23.6041 18.796C23.6824 18.8743 23.7822 18.9276 23.8908 18.9492C23.9994 18.9708 24.112 18.9598 24.2144 18.9174C24.3167 18.875 24.4042 18.8032 24.4657 18.7111C24.5272 18.619 24.5601 18.5108 24.5601 18.4C24.5601 18.2515 24.5011 18.109 24.396 18.004C24.291 17.899 24.1486 17.84 24.0001 17.84Z" fill="#454545"/>
</svg>
