<svg width="89" height="36" viewBox="0 0 89 36" fill="none" xmlns="http://www.w3.org/2000/svg">
<g id="SVG" clip-path="url(#clip0_11_294)">
<g id="Clip path group">
<mask id="mask0_11_294" style="mask-type:luminance" maskUnits="userSpaceOnUse" x="1" y="0" width="88" height="36">
<g id="clip0_11275_169477">
<path id="Vector" d="M88.25 0H1.25V36H88.25V0Z" fill="white"/>
</g>
</mask>
<g mask="url(#mask0_11_294)">
<g id="Group">
<path id="Vector_2" d="M81.743 25.215C81.5103 25.215 81.35 25.0526 81.35 24.8189V13.2128H77.4342C77.2013 13.2128 77.0408 13.051 77.0408 12.8171V11.2162C77.0408 10.9817 77.2014 10.8196 77.4342 10.8196H87.8573C88.0899 10.8196 88.25 10.9819 88.25 11.2162V12.817C88.25 13.0508 88.0899 13.2128 87.8573 13.2128H83.9418V24.8187C83.9418 25.0526 83.7807 25.215 83.5488 25.215H81.743ZM51.7475 19.4205L49.6919 13.483L47.618 19.4205H51.7475ZM56.3064 24.7461C56.3963 24.9806 56.253 25.215 56.0027 25.215H54.1437C53.8754 25.215 53.7143 25.0895 53.6246 24.8364L52.5702 21.7784H46.7963L45.74 24.8364C45.6513 25.0895 45.4898 25.215 45.2222 25.215H43.4708C43.238 25.215 43.0769 24.9806 43.1663 24.7461L48.0111 11.1802C48.1008 10.9275 48.2616 10.8202 48.5292 10.8202H50.9249C51.1934 10.8202 51.3722 10.9275 51.4614 11.1802L56.3064 24.7461ZM70.1936 23.2713C71.3372 23.2713 72.1064 22.7144 72.7322 21.7604L69.8364 18.629C68.7275 19.2593 68.0121 19.8882 68.0121 21.1482C68.0123 22.3899 69.0129 23.2713 70.1936 23.2713ZM70.9979 12.7268C70.0685 12.7268 69.5322 13.3212 69.5322 14.1128C69.5322 14.7245 69.8534 15.2645 70.5867 16.0563C71.8559 15.318 72.3924 14.8685 72.3924 14.077C72.3924 13.3386 71.9279 12.7268 70.9979 12.7268ZM78.9185 24.7112C79.1505 24.9633 79.0079 25.215 78.7211 25.215H76.4505C76.1468 25.215 75.9858 25.1427 75.7893 24.9086L74.4306 23.3976C73.5189 24.6213 72.2486 25.5387 70.1396 25.5387C67.5296 25.5387 65.4729 23.9555 65.4729 21.2388C65.4729 19.151 66.582 18.0351 68.2628 17.0996C67.4397 16.146 67.065 15.1383 67.065 14.257C67.065 12.0252 68.6202 10.496 70.9617 10.496C73.3575 10.496 74.8238 11.918 74.8238 14.0228C74.8238 15.8223 73.5368 16.829 72.1776 17.5853L74.1803 19.7633L75.3063 17.7833C75.4493 17.5497 75.6102 17.4594 75.896 17.4594H77.6297C77.9162 17.4594 78.0771 17.6579 77.8989 17.9636L75.8961 21.4178L78.9185 24.7112ZM61.0767 25.215C61.3092 25.215 61.4709 25.0526 61.4709 24.8189V13.2128H65.3855C65.618 13.2128 65.7786 13.051 65.7786 12.8171V11.2162C65.7786 10.9817 65.618 10.8196 65.3855 10.8196H54.9624C54.7296 10.8196 54.5691 10.9819 54.5691 11.2162V12.817C54.5691 13.0508 54.7298 13.2128 54.9624 13.2128H58.877V24.8187C58.877 25.0526 59.0385 25.215 59.2706 25.215H61.0767Z" fill="#9DA4AE"/>
<path id="Vector_3" d="M8.16701 32.2158C11.1989 34.5789 15.0045 35.9986 19.1335 35.9986C23.6518 35.9986 27.7709 34.3097 30.9146 31.5371C30.9527 31.5032 30.934 31.4808 30.8963 31.5032C29.4857 32.4518 25.4651 34.5225 19.1336 34.5225C13.6313 34.5225 10.154 33.2864 8.19032 32.1828C8.15275 32.1641 8.13884 32.1926 8.16701 32.2158ZM20.3474 33.1359C24.7483 33.1359 29.5843 31.9279 32.4766 29.5369C33.2681 28.8853 34.022 28.0183 34.6972 26.8531C35.0858 26.1826 35.4661 25.386 35.7757 24.603C35.7895 24.5649 35.7661 24.5463 35.7376 24.5892C33.0478 28.5745 25.2592 31.0603 17.2169 31.0603C11.5323 31.0603 5.41585 29.23 3.0212 25.7352C2.99764 25.7029 2.97406 25.7168 2.98841 25.7538C5.2192 30.5279 11.9869 33.1359 20.3474 33.1359ZM15.539 25.2159C6.38608 25.2159 2.07028 20.9238 1.2874 17.9948C1.27775 17.9523 1.25 17.9616 1.25 17.9997C1.25 18.9858 1.34802 20.2582 1.51667 21.1029C1.59713 21.514 1.92946 22.1593 2.41672 22.6737C4.63306 24.9998 10.1587 28.2591 19.7282 28.2591C32.7664 28.2591 35.7475 23.8862 36.3563 22.4481C36.7916 21.4197 37.0171 19.5611 37.0171 17.9997C37.0171 17.622 37.0078 17.3202 36.9935 17.024C36.9935 16.9758 36.9659 16.9719 36.9563 17.0187C36.3047 20.5375 25.1653 25.2159 15.539 25.2159ZM2.97406 10.2781C2.44958 11.3261 1.86823 13.0941 1.69541 14.0092C1.61965 14.4013 1.65192 14.5895 1.78847 14.8821C2.88551 17.2257 8.43455 20.9754 21.3784 20.9754C29.275 20.9754 35.4092 19.0221 36.4031 15.4577C36.5861 14.8014 36.5959 14.1086 36.3608 13.175C36.0982 12.1319 35.6062 10.9154 35.1898 10.0612C35.1761 10.0333 35.1518 10.0374 35.1568 10.0704C35.3114 14.7456 22.3625 17.7588 15.8291 17.7588C8.75219 17.7588 2.84812 14.9198 2.84812 11.335C2.84812 10.9906 2.91892 10.6461 3.00728 10.2876C3.01616 10.2548 2.98832 10.2494 2.97406 10.2781ZM30.9436 4.53786C31.0187 4.65644 31.0562 4.78299 31.0562 4.95332C31.0562 6.95316 24.9773 10.491 15.3005 10.491C8.19032 10.491 6.85915 7.8352 6.85915 6.14625C6.85915 5.54251 7.08911 4.92477 7.59559 4.29738C7.62323 4.26007 7.59976 4.24572 7.56784 4.27349C6.64414 5.06165 5.79542 5.9485 5.0509 6.90586C4.69516 7.35862 4.47433 7.75973 4.47433 8.00003C4.47433 11.5001 13.1908 14.0378 21.341 14.0378C30.0251 14.0378 33.9008 11.1834 33.9008 8.67496C33.9008 7.77846 33.5542 7.25511 32.6675 6.24048C32.092 5.58043 31.5476 5.04298 30.9715 4.51395C30.9436 4.49084 30.9242 4.50966 30.9436 4.53786ZM28.2814 2.53847C25.6012 0.920962 22.489 0.000732422 19.1336 0.000732422C15.7549 0.000732422 12.5488 0.953102 9.85907 2.61342C9.05227 3.11338 8.59816 3.51403 8.59816 4.02906C8.59816 5.54724 12.122 7.17963 18.3739 7.17963C24.5608 7.17963 29.3594 5.39163 29.3594 3.67053C29.3594 3.25973 29.0029 2.9723 28.2814 2.53847Z" fill="#9DA4AE"/>
</g>
</g>
</g>
</g>
<defs>
<clipPath id="clip0_11_294">
<rect width="88.5" height="36" fill="white" transform="translate(0.5)"/>
</clipPath>
</defs>
</svg>
