<svg width="56" height="57" viewBox="0 0 56 57" fill="none" xmlns="http://www.w3.org/2000/svg">
<path d="M1 28.5C1 13.5883 13.0883 1.5 28 1.5C42.9117 1.5 55 13.5883 55 28.5C55 43.4117 42.9117 55.5 28 55.5C13.0883 55.5 1 43.4117 1 28.5Z" fill="white"/>
<path d="M1 28.5C1 13.5883 13.0883 1.5 28 1.5C42.9117 1.5 55 13.5883 55 28.5C55 43.4117 42.9117 55.5 28 55.5C13.0883 55.5 1 43.4117 1 28.5Z" stroke="#E2E8F0" stroke-width="2"/>
<path d="M28.5547 22.0385C29.638 22.0385 30.9959 21.3061 31.8045 20.3296C32.5369 19.4447 33.0709 18.2088 33.0709 16.973C33.0709 16.8051 33.0556 16.6373 33.0251 16.5C31.8198 16.5458 30.3703 17.3086 29.5006 18.3309C28.8141 19.109 28.1885 20.3296 28.1885 21.5807C28.1885 21.7638 28.219 21.9469 28.2343 22.0079C28.3106 22.0232 28.4326 22.0385 28.5547 22.0385ZM24.7403 40.5C26.2203 40.5 26.8764 39.5083 28.7225 39.5083C30.5992 39.5083 31.0111 40.4695 32.6589 40.4695C34.2762 40.4695 35.3595 38.9743 36.3818 37.5095C37.5261 35.8312 37.999 34.1834 38.0296 34.1071C37.9228 34.0766 34.8255 32.8102 34.8255 29.2552C34.8255 26.1732 37.2667 24.7848 37.404 24.678C35.7867 22.3589 33.3303 22.2978 32.6589 22.2978C30.8433 22.2978 29.3633 23.3964 28.4326 23.3964C27.4256 23.3964 26.0982 22.3589 24.5267 22.3589C21.5362 22.3589 18.5 24.8306 18.5 29.4994C18.5 32.3983 19.6291 35.465 21.0175 37.4485C22.2076 39.1268 23.2451 40.5 24.7403 40.5Z" fill="black"/>
</svg>
