<svg width="104" height="26" viewBox="0 0 104 26" fill="none" xmlns="http://www.w3.org/2000/svg">
<g id="appLogo-1 1" clip-path="url(#clip0_11_323)">
<g id="Group">
<g id="Group_2">
<path id="Vector" d="M9.90005 7.54456V9.71649H0.1698V7.54456H9.90005ZM9.90005 18.3598V20.5317H0.1698V18.3598L6.25121 10.8005H9.03869L2.93951 18.3598H9.90005Z" fill="#4C1A88"/>
<path id="Vector_2" d="M20.3426 18.3597V20.5316H17.6276C16.7588 20.5381 15.8983 20.3628 15.1013 20.0168C14.3332 19.6857 13.6346 19.2124 13.0424 18.6218C12.4536 18.0307 11.9843 17.3317 11.6603 16.5629C11.3267 15.7626 11.1549 14.9041 11.1549 14.0371C11.1549 13.17 11.3267 12.3115 11.6603 11.5112C11.984 10.7423 12.4533 10.0431 13.0424 9.4523C13.6348 8.86242 14.3334 8.38979 15.1013 8.0593C15.8984 7.71386 16.7589 7.53851 17.6276 7.54446H20.3426V9.71639H17.6276C17.0488 9.71254 16.4752 9.82728 15.9424 10.0535C14.9051 10.4909 14.0794 11.3159 13.6412 12.3528C13.4187 12.8866 13.3042 13.4591 13.3042 14.0373C13.3042 14.6155 13.4187 15.188 13.6412 15.7218C14.079 16.7592 14.9045 17.5847 15.9419 18.0225C16.4748 18.2488 17.0483 18.3635 17.6271 18.3597H20.3426ZM20.3426 12.9521V15.124H14.579C14.3045 14.4261 14.3045 13.65 14.579 12.9521H20.3426Z" fill="#4C1A88"/>
<path id="Vector_3" d="M28.9706 15.8708L31.6451 20.5296H29.1375L26.6728 16.208H24.6554V20.5296H22.4775V14.0361H27.3047C27.594 14.0379 27.8806 13.981 28.1473 13.8687C28.4037 13.7591 28.6379 13.6035 28.8383 13.4097C29.0382 13.2158 29.1972 12.9838 29.3058 12.7275C29.5276 12.1962 29.5302 11.5987 29.3129 11.0655C29.0957 10.5323 28.6763 10.1067 28.1463 9.88174C27.8799 9.76845 27.5931 9.71116 27.3037 9.71342H22.4775V7.56321H27.3047C27.988 7.54526 28.6652 7.69535 29.277 8.00028C29.8888 8.30521 30.4163 8.75567 30.8133 9.31211C31.18 9.82672 31.4324 10.4137 31.5537 11.0339C31.6783 11.6518 31.6719 12.2889 31.535 12.9042C31.3836 13.571 31.0705 14.1904 30.6233 14.7078C30.1761 15.2251 29.6086 15.6245 28.9706 15.8708Z" fill="#4C1A88"/>
<path id="Vector_4" d="M70.9112 7.62048V9.786H61.1819V7.62048H70.9112ZM70.9112 18.4357V20.6076H61.1819V18.4308L67.2633 10.872H70.0508L63.9511 18.4308L70.9112 18.4357Z" fill="#C31F5D"/>
<path id="Vector_5" d="M75.1523 7.63489V20.6013H73.0011V7.63489H75.1523Z" fill="#C31F5D"/>
<path id="Vector_6" d="M84.8011 18.4501V20.6013H77.8805V7.63489H80.0524V18.4501H84.8011Z" fill="#C31F5D"/>
<path id="Vector_7" d="M93.0154 18.4501V20.6013H86.0924V7.63489H88.2643V18.4501H93.0154Z" fill="#C31F5D"/>
<path id="Vector_8" d="M98.4225 7.63489L103.83 20.6013H96.5334L97.4318 18.4294H100.591L98.4191 13.2464L96.2471 18.4294L95.3487 20.6013H93.0149L98.4225 7.63489Z" fill="#C31F5D"/>
<path id="Vector_9" d="M56.4752 23.1746H56.9332L56.6223 24.7265C56.5993 24.8341 56.5869 24.9437 56.5852 25.0538C56.5852 25.4097 56.7274 25.6032 57.0754 25.6032C57.3671 25.6032 57.5883 25.386 57.6984 24.8272L58.0281 23.1765H58.4753L58.1416 24.8307C57.9792 25.653 57.6031 25.9971 57.0557 25.9971C56.9303 26.0148 56.8025 26.0033 56.6823 25.9635C56.5621 25.9237 56.4528 25.8567 56.3627 25.7677C56.2727 25.6787 56.2044 25.5701 56.1632 25.4504C56.122 25.3307 56.109 25.203 56.1252 25.0775C56.1299 24.9366 56.1465 24.7965 56.1745 24.6584L56.4752 23.1746Z" fill="black"/>
<path id="Vector_10" d="M58.9808 23.8621H59.352L59.3318 24.1583H59.3485C59.5369 23.9618 59.7894 23.8392 60.0603 23.8127C60.4059 23.8127 60.554 24.0062 60.554 24.3394C60.553 24.4376 60.5414 24.5354 60.5194 24.6312L60.2573 25.9437H59.8027L60.0554 24.6884C60.074 24.6166 60.0851 24.5429 60.0885 24.4688C60.0929 24.4334 60.0893 24.3976 60.0779 24.3638C60.0666 24.3301 60.0478 24.2993 60.0229 24.2738C59.9981 24.2483 59.9679 24.2288 59.9344 24.2165C59.901 24.2043 59.8653 24.1997 59.8298 24.2032C59.6817 24.2032 59.5213 24.3019 59.3016 24.5245L59.0218 25.9486H58.5671L58.9808 23.8621Z" fill="black"/>
<path id="Vector_11" d="M60.9295 25.6545C60.9308 25.5816 60.9399 25.5092 60.9567 25.4383L61.4503 22.9524H61.9049L61.4029 25.456C61.3971 25.4829 61.3942 25.5104 61.3945 25.538C61.3945 25.6007 61.4266 25.6258 61.4691 25.6258C61.4938 25.6267 61.5185 25.6227 61.5416 25.614L61.5332 25.9546C61.4511 25.9824 61.3648 25.9961 61.278 25.9951C61.2314 26.0016 61.184 25.9973 61.1393 25.9826C61.0946 25.9679 61.0539 25.9432 61.0202 25.9103C60.9866 25.8774 60.9609 25.8372 60.9452 25.7929C60.9295 25.7486 60.9241 25.7012 60.9295 25.6545Z" fill="black"/>
<path id="Vector_12" d="M63.1455 23.8127C63.6283 23.8127 63.8075 24.1499 63.8075 24.5803C63.8041 24.7314 63.7732 24.8806 63.7162 25.0206H62.45C62.4061 25.4595 62.6474 25.6461 62.9648 25.6461C63.1189 25.6348 63.2663 25.5783 63.3884 25.4836L63.5547 25.7754C63.3456 25.92 63.0971 25.9967 62.8429 25.995C62.728 26.0007 62.6132 25.9814 62.5065 25.9384C62.3997 25.8954 62.3036 25.8299 62.2246 25.7462C62.1457 25.6625 62.0858 25.5627 62.0491 25.4536C62.0124 25.3445 61.9998 25.2288 62.0122 25.1144C61.9955 24.7929 62.1044 24.4774 62.3158 24.2345C62.5272 23.9917 62.8247 23.8405 63.1455 23.8127ZM63.4091 24.7333C63.4228 24.6729 63.4299 24.6112 63.4303 24.5492C63.4303 24.3488 63.3439 24.1672 63.0912 24.1672C62.9433 24.1834 62.8047 24.2475 62.6966 24.3497C62.5884 24.4519 62.5165 24.5866 62.492 24.7333H63.4091Z" fill="black"/>
<path id="Vector_13" d="M64.0902 25.2368C64.0902 24.4416 64.6332 23.8127 65.2068 23.8127C65.3053 23.8131 65.4018 23.8406 65.4856 23.8924C65.5694 23.9441 65.6372 24.018 65.6816 24.106H65.6935L65.7804 23.8685H66.1456L65.729 25.9486H65.3588L65.3791 25.6589H65.3672C65.1927 25.8588 64.9459 25.9814 64.6811 25.9995C64.3183 25.995 64.0902 25.7255 64.0902 25.2368ZM65.4156 25.2699L65.5854 24.4391C65.5562 24.3676 65.5073 24.3058 65.4442 24.261C65.3812 24.2162 65.3067 24.1904 65.2295 24.1864C64.8736 24.1864 64.5557 24.6386 64.5557 25.1737C64.5557 25.4787 64.6742 25.6179 64.8652 25.6179C64.9792 25.6123 65.0897 25.5772 65.1862 25.5163C65.2826 25.4553 65.3616 25.3704 65.4156 25.2699Z" fill="black"/>
<path id="Vector_14" d="M66.2236 25.5972L66.4942 25.3766C66.5488 25.4585 66.6219 25.5266 66.7077 25.5752C66.7934 25.6238 66.8893 25.6516 66.9878 25.6564C67.1852 25.6564 67.3511 25.538 67.3511 25.3869C67.3511 25.2359 67.2444 25.1816 66.9818 25.031C66.7192 24.8805 66.5346 24.7072 66.5346 24.4589C66.5409 24.3659 66.5657 24.275 66.6075 24.1916C66.6493 24.1083 66.7073 24.0341 66.7781 23.9734C66.849 23.9127 66.9312 23.8668 67.02 23.8383C67.1088 23.8098 67.2024 23.7992 67.2953 23.8073C67.4183 23.8095 67.5395 23.8373 67.6513 23.8888C67.763 23.9402 67.8628 24.0144 67.9444 24.1065L67.6917 24.3439C67.6423 24.2851 67.5813 24.2372 67.5125 24.2032C67.4437 24.1692 67.3685 24.1499 67.2918 24.1464C67.2531 24.1419 67.2138 24.1451 67.1763 24.1558C67.1388 24.1664 67.1037 24.1844 67.0732 24.2087C67.0426 24.233 67.0172 24.263 66.9983 24.2971C66.9794 24.3313 66.9674 24.3688 66.9631 24.4076C66.9631 24.5497 67.1413 24.6341 67.319 24.7348C67.6275 24.9022 67.7795 25.0646 67.7795 25.3213C67.7795 25.7201 67.434 25.9847 66.9562 25.9847C66.8124 25.9814 66.6713 25.9447 66.5442 25.8774C66.417 25.8102 66.3073 25.7142 66.2236 25.5972Z" fill="black"/>
<path id="Vector_15" d="M68.6968 22.9524H69.1499L68.9697 23.8355L68.8878 24.1316H68.9046C69.0863 23.9447 69.3294 23.8297 69.5892 23.8078C69.9348 23.8078 70.0828 24.0013 70.0828 24.3345C70.0836 24.4327 70.0724 24.5307 70.0498 24.6263L69.7877 25.9388H69.333L69.5892 24.687C69.6079 24.6151 69.619 24.5415 69.6223 24.4673C69.6267 24.432 69.6231 24.3961 69.6117 24.3624C69.6004 24.3287 69.5816 24.2979 69.5568 24.2724C69.5319 24.2469 69.5017 24.2273 69.4683 24.2151C69.4348 24.2028 69.3991 24.1983 69.3637 24.2017C69.2156 24.2017 69.0551 24.3005 68.8345 24.5231L68.5556 25.9472H68.101L68.6968 22.9524Z" fill="black"/>
<path id="Vector_16" d="M71.3727 25.4871C71.3744 25.4042 71.3835 25.3216 71.3998 25.2403L71.6111 24.222H71.3193L71.388 23.8848L71.7024 23.8621L71.8688 23.3033H72.2498L72.1417 23.8621H72.6403L72.5692 24.218H72.0598L71.8475 25.2586C71.8395 25.3064 71.8356 25.3547 71.8357 25.4032C71.8357 25.5577 71.9033 25.6332 72.0731 25.6332C72.1407 25.6305 72.2066 25.6113 72.2651 25.5775L72.354 25.9003C72.2135 25.9603 72.0625 25.9919 71.9097 25.9931C71.8394 26.0036 71.7677 25.998 71.6999 25.9768C71.6321 25.9556 71.57 25.9192 71.5183 25.8705C71.4666 25.8218 71.4266 25.762 71.4014 25.6956C71.3762 25.6292 71.3664 25.5579 71.3727 25.4871Z" fill="black"/>
<path id="Vector_17" d="M73.2529 22.9524H73.706L73.5258 23.8355L73.4439 24.1371H73.4607C73.6424 23.9501 73.8855 23.8351 74.1453 23.8133C74.4908 23.8133 74.6389 24.0068 74.6389 24.34C74.6392 24.4382 74.6275 24.5362 74.6044 24.6317L74.3423 25.9442H73.8877L74.1404 24.6889C74.159 24.6171 74.1701 24.5435 74.1735 24.4693C74.1778 24.434 74.1742 24.3981 74.1629 24.3644C74.1515 24.3306 74.1328 24.2999 74.1079 24.2744C74.0831 24.2489 74.0528 24.2293 74.0194 24.2171C73.986 24.2048 73.9502 24.2003 73.9148 24.2037C73.7667 24.2037 73.6063 24.3024 73.3866 24.5251L73.1067 25.9492H72.6521L73.2529 22.9524Z" fill="black"/>
<path id="Vector_18" d="M76.0927 23.8127C76.5755 23.8127 76.7547 24.1499 76.7547 24.5803C76.7513 24.7314 76.7203 24.8806 76.6633 25.0206H75.3982C75.3542 25.4595 75.5956 25.6461 75.913 25.6461C76.067 25.6345 76.2143 25.578 76.3365 25.4836L76.5029 25.7754C76.2937 25.9197 76.0453 25.9964 75.7911 25.995C75.6762 26.0008 75.5613 25.9815 75.4545 25.9386C75.3478 25.8956 75.2516 25.8301 75.1726 25.7464C75.0936 25.6626 75.0337 25.5628 74.9971 25.4537C74.9604 25.3446 74.9479 25.2288 74.9603 25.1144C74.9433 24.7929 75.0519 24.4774 75.2632 24.2345C75.4745 23.9916 75.7719 23.8403 76.0927 23.8127ZM76.3573 24.7333C76.3706 24.6729 76.3774 24.6111 76.3775 24.5492C76.3775 24.3488 76.2911 24.1672 76.0394 24.1672C75.8914 24.1836 75.7528 24.2477 75.6446 24.3499C75.5363 24.452 75.4642 24.5866 75.4391 24.7333H76.3573Z" fill="black"/>
<path id="Vector_19" d="M78.4053 23.1746H79.236C79.7676 23.1746 80.1463 23.375 80.1463 23.8864C80.1463 24.614 79.6033 24.9141 78.9004 24.9141H78.5158L78.312 25.9507H77.8539L78.4053 23.1746ZM78.9359 24.5439C79.4261 24.5439 79.6906 24.3385 79.6906 23.9515C79.6906 23.6667 79.4972 23.5443 79.1477 23.5443H78.7918L78.5943 24.5493L78.9359 24.5439Z" fill="black"/>
<path id="Vector_20" d="M80.1818 25.1455C80.1605 24.8177 80.2684 24.4946 80.4825 24.2454C80.6966 23.9963 80.9998 23.8409 81.327 23.8127C81.4358 23.8101 81.5439 23.8309 81.644 23.8735C81.7441 23.9162 81.8339 23.9797 81.9074 24.06C81.9809 24.1402 82.0364 24.2352 82.0702 24.3387C82.1039 24.4422 82.1151 24.5516 82.103 24.6598C82.1245 24.9876 82.0166 25.3108 81.8025 25.5599C81.5884 25.8091 81.2851 25.9644 80.9578 25.9925C80.849 25.9951 80.741 25.9744 80.6409 25.9317C80.5408 25.8891 80.4509 25.8255 80.3774 25.7453C80.3039 25.665 80.2484 25.57 80.2147 25.4665C80.181 25.3631 80.1698 25.2536 80.1818 25.1455ZM81.644 24.6706C81.644 24.3572 81.5171 24.177 81.2787 24.177C80.9475 24.177 80.6414 24.5946 80.6414 25.1262C80.6414 25.4407 80.7683 25.6199 81.0067 25.6199C81.3379 25.6199 81.644 25.2032 81.644 24.6716V24.6706Z" fill="black"/>
<path id="Vector_21" d="M82.5117 23.8636H82.9614L82.996 24.9768V25.5691H83.0128C83.0922 25.3687 83.1658 25.1678 83.2502 24.9768L83.7354 23.8636H84.1486L84.2019 24.9768C84.2078 25.1742 84.2019 25.3741 84.2103 25.5691H84.227C84.3065 25.3687 84.3752 25.1703 84.4561 24.9768L84.9201 23.8636H85.3436L84.4289 25.9438H83.886L83.8489 24.9432V24.3311H83.8312C83.7492 24.5434 83.6767 24.7477 83.5937 24.9432L83.1668 25.9438H82.6386L82.5117 23.8636Z" fill="black"/>
<path id="Vector_22" d="M86.5753 23.8127C87.058 23.8127 87.2387 24.1499 87.2387 24.5803C87.2352 24.7315 87.2039 24.8808 87.1464 25.0206H85.8812C85.8373 25.4595 86.0787 25.6461 86.3961 25.6461C86.5501 25.6345 86.6973 25.578 86.8196 25.4836L86.9859 25.7754C86.7768 25.9198 86.5283 25.9964 86.2741 25.995C86.1592 26.0008 86.0444 25.9815 85.9376 25.9386C85.8308 25.8956 85.7346 25.8301 85.6556 25.7464C85.5766 25.6626 85.5168 25.5628 85.4801 25.4537C85.4435 25.3446 85.4309 25.2288 85.4434 25.1144C85.4263 24.793 85.5348 24.4775 85.746 24.2346C85.9572 23.9917 86.2546 23.8405 86.5753 23.8127ZM86.8398 24.7333C86.8531 24.6729 86.8599 24.6111 86.8601 24.5492C86.8601 24.3488 86.7737 24.1672 86.5219 24.1672C86.374 24.1837 86.2355 24.2479 86.1273 24.35C86.019 24.4522 85.9469 24.5867 85.9217 24.7333H86.8398Z" fill="black"/>
<path id="Vector_23" d="M87.8763 23.8636H88.2475L88.2105 24.2659H88.2273C88.2892 24.1438 88.38 24.0386 88.4919 23.9596C88.6037 23.8806 88.7332 23.8302 88.869 23.8128C88.9407 23.8098 89.0121 23.8232 89.0778 23.8518L88.9258 24.2516C88.8649 24.2251 88.7986 24.2133 88.7323 24.2171C88.5378 24.2171 88.3374 24.3716 88.1661 24.6919L87.9242 25.9437H87.4696L87.8763 23.8636Z" fill="black"/>
<path id="Vector_24" d="M89.8756 25.1455C89.8542 24.8177 89.9622 24.4946 90.1762 24.2454C90.3903 23.9963 90.6935 23.8409 91.0208 23.8127C91.1295 23.8101 91.2376 23.8309 91.3377 23.8735C91.4378 23.9162 91.5277 23.9797 91.6012 24.06C91.6747 24.1402 91.7301 24.2352 91.7639 24.3387C91.7976 24.4422 91.8088 24.5516 91.7967 24.6598C91.8182 24.9876 91.7104 25.3108 91.4962 25.5599C91.2821 25.8091 90.9789 25.9644 90.6515 25.9925C90.5428 25.9951 90.4347 25.9744 90.3346 25.9317C90.2345 25.8891 90.1447 25.8255 90.0712 25.7453C89.9976 25.665 89.9422 25.57 89.9084 25.4665C89.8747 25.3631 89.8635 25.2536 89.8756 25.1455ZM91.3377 24.6706C91.3377 24.3572 91.2108 24.177 90.9724 24.177C90.6427 24.177 90.3351 24.5946 90.3351 25.1262C90.3351 25.4407 90.462 25.6199 90.7004 25.6199C91.0316 25.6199 91.3377 25.2032 91.3377 24.6716V24.6706Z" fill="black"/>
<path id="Vector_25" d="M92.2641 23.8864L92.5406 23.8637L92.5855 23.6262C92.6709 23.2027 92.9048 22.9026 93.32 22.9026C93.4633 22.9025 93.6041 22.9402 93.7282 23.0117L93.5776 23.333C93.5129 23.292 93.4385 23.269 93.3619 23.2664C93.1912 23.2664 93.0865 23.3755 93.0406 23.6119L92.9912 23.8656H93.3817L93.3106 24.2215H92.9157L92.5751 25.9423H92.1205L92.466 24.2215H92.1955L92.2641 23.8864Z" fill="black"/>
<path id="Vector_26" d="M94.1093 25.5962L95.6188 23.6711H94.5328L94.6276 23.1833H96.4076L96.335 23.5323L94.8409 25.4575H96.0384L95.9362 25.9442H94.0367L94.1093 25.5962Z" fill="black"/>
<path id="Vector_27" d="M96.9515 23.1838H98.5889L98.4941 23.6715H97.4259L97.3074 24.2639H98.2093L98.1145 24.7516H97.2141L97.066 25.4515H98.1648L98.0701 25.9382H96.3997L96.9515 23.1838Z" fill="black"/>
<path id="Vector_28" d="M99.1832 23.1838H100.049C100.592 23.1838 100.999 23.3759 100.999 23.8897C100.999 24.6134 100.406 24.9317 99.7647 24.9317H99.4147L99.2143 25.9442H98.6362L99.1832 23.1838ZM99.8002 24.4727C100.211 24.4727 100.42 24.2752 100.42 23.9756C100.42 23.7441 100.257 23.6434 99.9591 23.6434H99.6684L99.507 24.4742L99.8002 24.4727ZM99.7039 24.798L100.123 24.4253L100.715 25.9442H100.107L99.7039 24.798Z" fill="black"/>
<path id="Vector_29" d="M101.277 24.8262C101.24 24.4157 101.367 24.0074 101.63 23.69C101.893 23.3727 102.27 23.172 102.681 23.1316C102.829 23.1285 102.976 23.1577 103.112 23.2171C103.248 23.2766 103.37 23.3648 103.468 23.4759C103.567 23.5869 103.64 23.718 103.683 23.8601C103.726 24.0022 103.738 24.152 103.717 24.299C103.754 24.7095 103.627 25.1179 103.364 25.4353C103.101 25.7526 102.723 25.9533 102.313 25.9936C102.165 25.996 102.018 25.9664 101.882 25.9067C101.747 25.847 101.625 25.7587 101.527 25.6479C101.429 25.537 101.355 25.4062 101.312 25.2644C101.269 25.1226 101.257 24.9731 101.277 24.8262ZM103.123 24.3375C103.123 23.8996 102.957 23.6326 102.648 23.6326C102.257 23.6326 101.869 24.1489 101.869 24.7882C101.869 25.227 102.035 25.493 102.344 25.493C102.739 25.493 103.123 24.9767 103.123 24.3375Z" fill="black"/>
<path id="Vector_30" d="M48.6961 23.7526C48.4 23.9668 48.1038 24.1711 47.7849 24.3671C47.2522 24.4369 46.7155 24.4719 46.1782 24.4718C43.1003 24.4661 40.1375 23.3009 37.8804 21.2084C35.6233 19.1158 34.2375 16.2496 33.9994 13.181C33.7612 10.1123 34.6881 7.06657 36.5953 4.6508C38.5025 2.23502 41.2499 0.626607 44.2901 0.146118H44.2758C42.6328 1.18927 41.283 2.63431 40.3542 4.34456C39.4254 6.05481 38.9482 7.97373 38.9678 9.91981V9.93067C38.6491 10.9253 38.5396 11.9751 38.6463 13.0141C38.7529 14.053 39.0733 15.0587 39.5874 15.9679C40.1015 16.877 40.7982 17.67 41.6336 18.2968C42.469 18.9237 43.425 19.371 44.4416 19.6105C45.4582 19.85 46.5134 19.8766 47.5407 19.6886C48.5681 19.5006 49.5455 19.102 50.4114 18.518C51.2773 17.934 52.013 17.1772 52.5722 16.2951C53.1315 15.413 53.5021 14.4247 53.661 13.3924C53.6704 13.4773 54.665 19.4141 48.6961 23.7526Z" fill="url(#paint0_linear_11_323)"/>
<path id="Vector_31" d="M58.4027 12.2364C58.4039 15.1997 57.329 18.0626 55.378 20.2929C53.4269 22.5232 50.7324 23.9693 47.7953 24.3622C48.1157 24.1613 48.4182 23.9554 48.7065 23.7476C54.6754 19.4097 53.6807 13.4729 53.6679 13.3969C53.727 13.0117 53.7567 12.6226 53.7568 12.2329C53.7604 10.4257 53.117 8.67676 51.943 7.30269C50.769 5.92862 49.1419 5.02014 47.3562 4.74159C45.5705 4.46305 43.7441 4.83286 42.2074 5.78411C40.6707 6.73535 39.5252 8.2052 38.9782 9.92773C38.9586 7.98152 39.4358 6.06247 40.3647 4.35212C41.2936 2.64177 42.6435 1.19668 44.2866 0.153547H44.301C46.0457 -0.126084 47.8304 -0.0225981 49.5311 0.456819C51.2318 0.936237 52.8077 1.78009 54.1495 2.9298C55.4913 4.0795 56.5668 5.50748 57.3013 7.1146C58.0357 8.72171 58.4116 10.4694 58.4027 12.2364Z" fill="url(#paint1_linear_11_323)"/>
</g>
</g>
</g>
<defs>
<linearGradient id="paint0_linear_11_323" x1="34.5359" y1="1.80026" x2="56.2801" y2="21.7094" gradientUnits="userSpaceOnUse">
<stop offset="0.03" stop-color="#4C1A72"/>
<stop offset="1" stop-color="#C31F5D"/>
</linearGradient>
<linearGradient id="paint1_linear_11_323" x1="38.9777" y1="12.1812" x2="58.4029" y2="12.1812" gradientUnits="userSpaceOnUse">
<stop offset="0.02" stop-color="#4C1A88"/>
<stop offset="0.17" stop-color="#511A86"/>
<stop offset="0.36" stop-color="#611B80"/>
<stop offset="0.58" stop-color="#7B1C77"/>
<stop offset="0.81" stop-color="#9F1D6A"/>
<stop offset="1" stop-color="#C31F5D"/>
</linearGradient>
<clipPath id="clip0_11_323">
<rect width="103.66" height="26" fill="white" transform="translate(0.1698)"/>
</clipPath>
</defs>
</svg>
