<svg width="48" height="48" viewBox="0 0 48 48" fill="none" xmlns="http://www.w3.org/2000/svg">
<rect width="48" height="48" rx="24" fill="#667085" fill-opacity="0.07"/>
<g clip-path="url(#clip0_11720_6092)">
<path d="M27.9195 25.9427L24.8521 23.6421V18.9559C24.8521 18.4847 24.4712 18.1038 24 18.1038C23.5288 18.1038 23.1479 18.4847 23.1479 18.9559V24.0682C23.1479 24.3366 23.2741 24.5897 23.4888 24.7499L26.897 27.306C27.0503 27.421 27.2293 27.4764 27.4074 27.4764C27.6672 27.4764 27.9229 27.3597 28.0899 27.1347C28.3728 26.7589 28.2961 26.2247 27.9195 25.9427Z" fill="#454545"/>
<path d="M24 13C17.9342 13 13 17.9342 13 24C13 30.0658 17.9342 35 24 35C30.0658 35 35 30.0658 35 24C35 17.9342 30.0658 13 24 13ZM24 33.2959C18.8749 33.2959 14.7041 29.1251 14.7041 24C14.7041 18.8749 18.8749 14.7041 24 14.7041C29.126 14.7041 33.2959 18.8749 33.2959 24C33.2959 29.1251 29.1251 33.2959 24 33.2959Z" fill="#454545"/>
</g>
<defs>
<clipPath id="clip0_11720_6092">
<rect width="22" height="22" fill="white" transform="translate(13 13)"/>
</clipPath>
</defs>
</svg>
