<svg width="56" height="57" viewBox="0 0 56 57" fill="none" xmlns="http://www.w3.org/2000/svg">
<path d="M1 28.5C1 13.5883 13.0883 1.5 28 1.5C42.9117 1.5 55 13.5883 55 28.5C55 43.4117 42.9117 55.5 28 55.5C13.0883 55.5 1 43.4117 1 28.5Z" fill="white"/>
<path d="M1 28.5C1 13.5883 13.0883 1.5 28 1.5C42.9117 1.5 55 13.5883 55 28.5C55 43.4117 42.9117 55.5 28 55.5C13.0883 55.5 1 43.4117 1 28.5Z" stroke="#E2E8F0" stroke-width="2"/>
<path fill-rule="evenodd" clip-rule="evenodd" d="M39.52 28.7727C39.52 27.9218 39.4436 27.1036 39.3018 26.3182H28V30.96H34.4582C34.18 32.46 33.3345 33.7309 32.0636 34.5818V37.5927H35.9418C38.2109 35.5036 39.52 32.4273 39.52 28.7727Z" fill="#4285F4"/>
<path fill-rule="evenodd" clip-rule="evenodd" d="M28 40.5C31.24 40.5 33.9564 39.4254 35.9418 37.5927L32.0636 34.5818C30.9891 35.3018 29.6145 35.7272 28 35.7272C24.8745 35.7272 22.2291 33.6163 21.2855 30.78H17.2764V33.8891C19.2509 37.8109 23.3091 40.5 28 40.5Z" fill="#34A853"/>
<path fill-rule="evenodd" clip-rule="evenodd" d="M21.2855 30.78C21.0455 30.06 20.9091 29.2909 20.9091 28.5C20.9091 27.7091 21.0455 26.94 21.2855 26.22V23.1109H17.2764C16.4636 24.7309 16 26.5636 16 28.5C16 30.4364 16.4636 32.2691 17.2764 33.8891L21.2855 30.78Z" fill="#FBBC05"/>
<path fill-rule="evenodd" clip-rule="evenodd" d="M28 21.2727C29.7618 21.2727 31.3436 21.8782 32.5873 23.0673L36.0291 19.6255C33.9509 17.6891 31.2345 16.5 28 16.5C23.3091 16.5 19.2509 19.1891 17.2764 23.1109L21.2855 26.22C22.2291 23.3836 24.8745 21.2727 28 21.2727Z" fill="#EA4335"/>
</svg>
