<svg width="40" height="40" viewBox="0 0 40 40" fill="none" xmlns="http://www.w3.org/2000/svg">
<circle cx="20" cy="20" r="20" fill="#464646"/>
<g clip-path="url(#clip0_285_335)">
<path d="M24.1275 11H15.8724C13.1857 11 11 13.1857 11 15.8724V24.1277C11 26.8142 13.1857 29 15.8724 29H24.1277C26.8142 29 29 26.8142 29 24.1277V15.8724C29 13.1857 26.8142 11 24.1275 11ZM27.9447 24.1277C27.9447 26.2324 26.2324 27.9447 24.1275 27.9447H15.8724C13.7676 27.9447 12.0552 26.2324 12.0552 24.1277V15.8724C12.0552 13.7676 13.7676 12.0552 15.8724 12.0552H24.1277C26.2324 12.0552 27.9447 13.7676 27.9447 15.8724V24.1277Z" fill="white"/>
<path d="M20 15.0784C17.2861 15.0784 15.0782 17.2862 15.0782 20.0001C15.0782 22.714 17.2861 24.9218 20 24.9218C22.7139 24.9218 24.9217 22.714 24.9217 20.0001C24.9217 17.2862 22.7139 15.0784 20 15.0784ZM20 23.8666C17.8681 23.8666 16.1335 22.1321 16.1335 20.0001C16.1335 17.8682 17.8681 16.1336 20 16.1336C22.132 16.1336 23.8665 17.8682 23.8665 20.0001C23.8665 22.1321 22.132 23.8666 20 23.8666Z" fill="white"/>
<path d="M25.0394 13.3301C24.2374 13.3301 23.5851 13.9825 23.5851 14.7844C23.5851 15.5864 24.2374 16.2388 25.0394 16.2388C25.8414 16.2388 26.4938 15.5864 26.4938 14.7844C26.4938 13.9824 25.8414 13.3301 25.0394 13.3301ZM25.0394 15.1835C24.8194 15.1835 24.6403 15.0044 24.6403 14.7844C24.6403 14.5643 24.8194 14.3853 25.0394 14.3853C25.2595 14.3853 25.4386 14.5643 25.4386 14.7844C25.4386 15.0044 25.2595 15.1835 25.0394 15.1835Z" fill="white"/>
</g>
<defs>
<clipPath id="clip0_285_335">
<rect width="18" height="18" fill="white" transform="translate(11 11)"/>
</clipPath>
</defs>
</svg>
