<svg width="48" height="48" viewBox="0 0 48 48" fill="none" xmlns="http://www.w3.org/2000/svg">
<rect width="48" height="48" rx="24" fill="#667085" fill-opacity="0.07"/>
<g clip-path="url(#clip0_11720_6075)">
<path d="M36 19.2539C36 18.0908 35.0537 17.1445 33.8906 17.1445H30.1406V15.6315C30.1406 14.411 29.1476 13.418 27.9271 13.418H20.073C18.8524 13.418 17.8594 14.411 17.8594 15.6315V17.1445H14.1094C12.9463 17.1445 12 18.0908 12 19.2539V22.5819C12 23.202 12.2019 23.9754 12.9375 24.7341V32.4727C12.9375 33.6358 13.8838 34.582 15.0469 34.582H32.9531C34.1162 34.582 35.0625 33.6358 35.0625 32.4727V24.7341C35.7977 23.9759 36 23.2027 36 22.5819V19.2539ZM19.2656 15.6315C19.2656 15.1864 19.6278 14.8242 20.073 14.8242H27.9271C28.3723 14.8242 28.7344 15.1864 28.7344 15.6315V17.1445H19.2656V15.6315ZM13.4062 19.2539C13.4062 18.8662 13.7217 18.5508 14.1094 18.5508H33.8906C34.2783 18.5508 34.5938 18.8662 34.5938 19.2539V22.5819C34.5938 24.312 31.2746 25.7238 26.4375 26.0937V25.4414C26.4375 25.0531 26.1227 24.7383 25.7344 24.7383H22.2656C21.8773 24.7383 21.5625 25.0531 21.5625 25.4414V26.0934C16.7297 25.7231 13.4062 24.3075 13.4062 22.5819V19.2539ZM25.0312 26.1445V27.0586C25.0312 27.5626 24.6212 27.9727 24.1172 27.9727H23.8828C23.3788 27.9727 22.9688 27.5626 22.9688 27.0586V26.1445H25.0312ZM32.9531 33.1758H15.0469C14.6592 33.1758 14.3438 32.8604 14.3438 32.4727V25.766C16.4374 26.8388 18.6376 27.2525 21.6064 27.5069C21.8159 28.5724 22.7568 29.3789 23.8828 29.3789H24.1172C25.2433 29.3789 26.1843 28.5723 26.3937 27.5067C28.846 27.3291 31.0599 26.8789 32.6764 26.2248C33.0399 26.0777 33.3651 25.9241 33.6562 25.7659V32.4727C33.6562 32.8604 33.3408 33.1758 32.9531 33.1758Z" fill="#454545"/>
</g>
<defs>
<clipPath id="clip0_11720_6075">
<rect width="24" height="24" fill="white" transform="translate(12 12)"/>
</clipPath>
</defs>
</svg>
