<svg width="40" height="40" viewBox="0 0 40 40" fill="none" xmlns="http://www.w3.org/2000/svg">
<circle cx="20" cy="20" r="20" fill="#464646"/>
<path d="M23.3334 16.666C24.6595 16.666 25.9312 17.1928 26.8689 18.1305C27.8066 19.0682 28.3334 20.3399 28.3334 21.666V27.4993H25V21.666C25 21.224 24.8244 20.8001 24.5119 20.4875C24.1993 20.1749 23.7754 19.9993 23.3334 19.9993C22.8913 19.9993 22.4674 20.1749 22.1549 20.4875C21.8423 20.8001 21.6667 21.224 21.6667 21.666V27.4993H18.3334V21.666C18.3334 20.3399 18.8602 19.0682 19.7978 18.1305C20.7355 17.1928 22.0073 16.666 23.3334 16.666Z" stroke="white" stroke-linecap="round" stroke-linejoin="round"/>
<path d="M15 17.5H11.6667V27.5H15V17.5Z" stroke="white" stroke-linecap="round" stroke-linejoin="round"/>
<path d="M13.3333 14.9993C14.2538 14.9993 15 14.2532 15 13.3327C15 12.4122 14.2538 11.666 13.3333 11.666C12.4128 11.666 11.6666 12.4122 11.6666 13.3327C11.6666 14.2532 12.4128 14.9993 13.3333 14.9993Z" stroke="white" stroke-linecap="round" stroke-linejoin="round"/>
</svg>
