<svg width="14" height="15" viewBox="0 0 14 15" fill="none" xmlns="http://www.w3.org/2000/svg">
<path d="M12.25 6.33334C12.25 10.4167 7 13.9167 7 13.9167C7 13.9167 1.75 10.4167 1.75 6.33334C1.75 4.94096 2.30312 3.6056 3.28769 2.62103C4.27226 1.63647 5.60761 1.08334 7 1.08334C8.39239 1.08334 9.72774 1.63647 10.7123 2.62103C11.6969 3.6056 12.25 4.94096 12.25 6.33334Z" stroke="#98A2B3" stroke-width="1.5" stroke-linecap="round" stroke-linejoin="round"/>
<path d="M7 8.08334C7.9665 8.08334 8.75 7.29984 8.75 6.33334C8.75 5.36685 7.9665 4.58334 7 4.58334C6.0335 4.58334 5.25 5.36685 5.25 6.33334C5.25 7.29984 6.0335 8.08334 7 8.08334Z" stroke="#98A2B3" stroke-width="1.5" stroke-linecap="round" stroke-linejoin="round"/>
</svg>
