<svg width="56" height="57" viewBox="0 0 56 57" fill="none" xmlns="http://www.w3.org/2000/svg">
<path d="M1 28.5C1 13.5883 13.0883 1.5 28 1.5C42.9117 1.5 55 13.5883 55 28.5C55 43.4117 42.9117 55.5 28 55.5C13.0883 55.5 1 43.4117 1 28.5Z" fill="white"/>
<path d="M1 28.5C1 13.5883 13.0883 1.5 28 1.5C42.9117 1.5 55 13.5883 55 28.5C55 43.4117 42.9117 55.5 28 55.5C13.0883 55.5 1 43.4117 1 28.5Z" stroke="#E2E8F0" stroke-width="2"/>
<path d="M28 18.5H19V27.5H28V18.5Z" fill="#F25022"/>
<path d="M28 28.5H19V37.5H28V28.5Z" fill="#00A4EF"/>
<path d="M38 18.5H29V27.5H38V18.5Z" fill="#7FBA00"/>
<path d="M38 28.5H29V37.5H38V28.5Z" fill="#FFB900"/>
</svg>
