<svg width="48" height="48" viewBox="0 0 48 48" fill="none" xmlns="http://www.w3.org/2000/svg">
<rect width="48" height="48" rx="24" fill="#667085" fill-opacity="0.07"/>
<g clip-path="url(#clip0_11720_6082)">
<path d="M20.6455 29.3853C21.1789 29.3853 21.628 28.9362 21.628 28.4029C21.628 27.8695 21.1789 27.4204 20.6455 27.4204C20.1122 27.4204 19.6631 27.8695 19.6631 28.4029C19.6631 28.9362 20.1122 29.3853 20.6455 29.3853Z" fill="#454545" stroke="#454545" stroke-width="0.2"/>
<path d="M34.6526 32.5572H34.1193V28.6555C34.1193 25.7081 31.9578 23.1818 29.0386 22.7326C31.5649 21.0765 32.2666 17.6519 30.6105 15.1256C28.9544 12.5993 25.5017 11.8976 22.9754 13.5818C20.4491 15.266 19.7193 18.6625 21.4035 21.1888C21.8245 21.8064 22.3298 22.3396 22.9754 22.7607C22.3859 22.845 21.8246 23.0134 21.2913 23.266H14.4421C13.6561 23.266 13.0105 23.9396 13.0947 24.7537L13.7684 32.1642C13.7964 32.3045 13.8245 32.4449 13.8807 32.5572H13.3755C12.6176 32.5853 12 33.2029 12 33.9608C12.0281 34.7187 12.6176 35.3082 13.3755 35.3362H34.6246C35.3825 35.3082 36.0001 34.6906 36.0001 33.9327C36.0001 33.1747 35.3824 32.5572 34.6526 32.5572ZM33.1368 28.6555V32.5292H31.1719C31.2281 32.3888 31.2842 32.2484 31.3123 32.08L31.4807 31.0976C31.5368 30.7888 31.2842 30.5362 31.0035 30.5362H27.9438L27.3824 24.473C27.3543 24.1362 27.1859 23.8275 26.9895 23.6309H28.1123C30.8912 23.659 33.1088 25.9046 33.1368 28.6555ZM30.386 31.5467L30.3298 31.9397C30.2737 32.2765 29.9649 32.5292 29.6281 32.5292H28.1404L28.0561 31.5467H30.386ZM21.4877 18.1853C21.4877 15.6871 23.4807 13.666 25.9789 13.666C28.4772 13.666 30.4982 15.659 30.4982 18.1572C30.4982 20.6554 28.5052 22.6765 26.007 22.6765C26.007 22.6765 26.007 22.6765 25.9789 22.6765C23.5088 22.6765 21.4877 20.6836 21.4877 18.1853ZM14.4421 24.2485H26.0351C26.2316 24.2485 26.3719 24.3888 26.4 24.5853L27.1298 32.5573H15.3123C15.0316 32.5573 14.7789 32.3327 14.7509 32.052L14.0772 24.6414C14.0491 24.4169 14.2737 24.2485 14.4421 24.2485ZM34.6526 34.3537H13.3755C13.1509 34.3537 12.9825 34.1572 12.9825 33.9327C12.9825 33.7081 13.1509 33.5397 13.3755 33.5397H34.6246C34.8491 33.5397 35.0176 33.7362 35.0176 33.9608C35.0176 34.1572 34.8491 34.3257 34.6526 34.3537Z" fill="#454545" stroke="#454545" stroke-width="0.2"/>
</g>
<defs>
<clipPath id="clip0_11720_6082">
<rect width="24" height="24" fill="white" transform="translate(12 12)"/>
</clipPath>
</defs>
</svg>
