<svg width="48" height="48" viewBox="0 0 48 48" fill="none" xmlns="http://www.w3.org/2000/svg">
<rect width="48" height="48" rx="24" fill="#667085" fill-opacity="0.07"/>
<g clip-path="url(#clip0_11720_6055)">
<path d="M26.8909 14.2604C26.5587 14.2604 26.2893 13.991 26.2893 13.6588V11.8475C26.2893 11.4921 26.0003 11.2031 25.645 11.2031H22.3548C21.9995 11.2031 21.7104 11.4921 21.7104 11.8475V13.6588C21.7104 13.991 21.4411 14.2604 21.1089 14.2604C20.7767 14.2604 20.5073 13.991 20.5073 13.6588V11.8475C20.5073 10.8287 21.3361 10 22.3548 10H25.645C26.6637 10 27.4924 10.8287 27.4924 11.8475V13.6588C27.4924 13.991 27.2231 14.2604 26.8909 14.2604Z" fill="#454545"/>
<path d="M30.1274 25.1566H17.8452C17.513 25.1566 17.2437 25.426 17.2437 25.7582C17.2437 26.0904 17.513 26.3598 17.8452 26.3598H30.1273C30.4595 26.3598 30.7289 26.0904 30.7289 25.7582C30.7289 25.426 30.4596 25.1566 30.1274 25.1566Z" fill="#454545"/>
<path d="M31.6405 13.1172H16.3593C15.6106 13.1172 15.0015 13.7291 15.0015 14.4813V18.4254C15.0015 18.9468 15.289 19.4056 15.731 19.6353V24.1791C15.731 24.5113 16.0003 24.7807 16.3326 24.7807C16.6648 24.7807 16.9341 24.5113 16.9341 24.1791V19.9811L20.8746 20.9948C21.1962 21.0774 21.5243 20.8838 21.6071 20.562C21.6899 20.2403 21.4962 19.9123 21.1744 19.8295L16.3425 18.5866C16.3372 18.5852 16.3317 18.5839 16.3263 18.5827C16.2558 18.5666 16.2047 18.5005 16.2047 18.4254V14.4814C16.2047 14.3926 16.2741 14.3204 16.3594 14.3204H31.6407C31.726 14.3204 31.7954 14.3926 31.7954 14.4814V18.4255C31.7954 18.5006 31.7442 18.5667 31.6738 18.5828C31.6684 18.584 31.6629 18.5853 31.6576 18.5867L26.8257 19.8296C26.5039 19.9124 26.3102 20.2403 26.393 20.5621C26.4628 20.8336 26.7072 21.014 26.9752 21.014C27.0248 21.014 27.0752 21.0078 27.1255 20.9949L31.066 19.9812V24.2604C31.066 24.5926 31.3353 24.862 31.6675 24.862C31.9998 24.862 32.2691 24.5926 32.2691 24.2604V19.6354C32.7111 19.4056 32.9986 18.9468 32.9986 18.4255V14.4814C32.9984 13.7291 32.3892 13.1172 31.6405 13.1172Z" fill="#454545"/>
<path d="M26.3063 22.9482H21.6934C21.0394 22.9482 20.5073 22.4162 20.5073 21.7622V19.5514C20.5073 18.8974 21.0394 18.3653 21.6934 18.3653H26.3063C26.9603 18.3653 27.4924 18.8974 27.4924 19.5514V21.7622C27.4924 22.4161 26.9603 22.9482 26.3063 22.9482ZM21.7104 21.7451H26.2893V19.5684H21.7104V21.7451Z" fill="#454545"/>
<path d="M36.1292 16.0418C35.0977 16.0418 34.2584 16.8809 34.2584 17.9125V22.2331C33.6264 22.0534 32.9177 22.2115 32.4209 22.7082L29.0597 26.0694C28.3193 26.8099 27.9115 27.7944 27.9115 28.8415V33.0822H27.8875C27.2542 33.0822 26.739 33.5973 26.739 34.2306V36.8516C26.739 37.4848 27.2542 38 27.8875 38H34.0815C34.7148 38 35.23 37.4848 35.23 36.8516V34.2305C35.23 33.5973 34.7148 33.0821 34.0815 33.0821H34.0575V31.6515C34.0575 31.4373 34.1409 31.2358 34.2924 31.0843L37.1215 28.2552C37.6879 27.6887 37.9999 26.9355 37.9999 26.1344V17.9125C37.9999 16.8809 37.1608 16.0418 36.1292 16.0418ZM34.0268 36.7969H27.9421V34.2852H34.0268V36.7969ZM36.7968 26.1344C36.7968 26.6142 36.61 27.0652 36.2708 27.4044L33.4416 30.2335C33.0629 30.6123 32.8543 31.1159 32.8543 31.6515V33.0821H29.1146V28.8415C29.1146 28.1157 29.3973 27.4333 29.9105 26.9201L33.2717 23.5589C33.532 23.2986 33.9555 23.2986 34.2158 23.5589C34.4577 23.8188 34.4868 24.2376 34.2158 24.503L31.0831 27.6357C30.8482 27.8707 30.8482 28.2516 31.0831 28.4865C31.3181 28.7214 31.699 28.7214 31.9339 28.4865L35.0666 25.3538C35.6232 24.7972 35.7545 23.9743 35.4616 23.2915V17.9125C35.4616 17.5444 35.7611 17.2449 36.1292 17.2449C36.4973 17.2449 36.7968 17.5443 36.7968 17.9125V26.1344Z" fill="#454545"/>
<path d="M20.1125 33.0821H20.0885V28.8415C20.0885 27.7943 19.6807 26.8098 18.9403 26.0694L15.5791 22.7081C15.0823 22.2114 14.3736 22.0533 13.7416 22.2331V17.9125C13.7416 16.8809 12.9023 16.0417 11.8708 16.0417C10.8393 16.0417 10 16.8809 10 17.9125V26.1345C10 26.9355 10.312 27.6887 10.8784 28.2552L13.7075 31.0843C13.8591 31.2359 13.9425 31.4373 13.9425 31.6515V33.0821H13.9184C13.2851 33.0821 12.77 33.5973 12.77 34.2306V36.8516C12.77 37.4848 13.2851 38 13.9184 38H20.1125C20.7458 38 21.2609 37.4848 21.2609 36.8516V34.2306C21.261 33.5973 20.7458 33.0821 20.1125 33.0821ZM14.5584 30.2336L11.7292 27.4044C11.3899 27.0652 11.2031 26.6142 11.2031 26.1345V17.9125C11.2031 17.5444 11.5026 17.2449 11.8707 17.2449C12.2389 17.2449 12.5384 17.5444 12.5384 17.9125V23.2915C12.2454 23.9743 12.3767 24.7972 12.9334 25.3538L16.0661 28.4865C16.301 28.7214 16.6819 28.7214 16.9169 28.4865C17.1518 28.2516 17.1518 27.8707 16.9169 27.6357L13.7842 24.503C13.5132 24.2376 13.5423 23.8188 13.7842 23.5589C14.0445 23.2986 14.4681 23.2986 14.7283 23.5589L18.0895 26.9201C18.6027 27.4333 18.8854 28.1157 18.8854 28.8415V33.0821H15.1457V31.6515C15.1457 31.1159 14.9371 30.6123 14.5584 30.2336ZM20.0579 36.7969H13.9732V34.2852H20.0579V36.7969Z" fill="#454545"/>
</g>
<defs>
<clipPath id="clip0_11720_6055">
<rect width="28" height="28" fill="white" transform="translate(10 10)"/>
</clipPath>
</defs>
</svg>
