<svg width="40" height="40" viewBox="0 0 40 40" fill="none" xmlns="http://www.w3.org/2000/svg">
<circle cx="20" cy="20" r="20" fill="#464646"/>
<g clip-path="url(#clip0_329_70)">
<path d="M23.3863 19.0114L18.5259 16.352C18.2465 16.1991 17.9162 16.2048 17.6422 16.3671C17.3681 16.5296 17.2047 16.8166 17.2047 17.1352V22.4082C17.2047 22.7253 17.3671 23.0118 17.6394 23.1745C17.7815 23.2594 17.9391 23.302 18.0971 23.302C18.2418 23.302 18.3868 23.2663 18.5202 23.1944L23.3807 20.5809C23.6692 20.4256 23.8493 20.1257 23.8507 19.7979C23.8519 19.4701 23.6739 19.1688 23.3863 19.0114ZM18.4939 21.7449V17.8039L22.1264 19.7915L18.4939 21.7449Z" fill="white"/>
<path d="M30.8381 15.5969L30.8371 15.5868C30.8185 15.4097 30.633 13.8347 29.8673 13.0335C28.9822 12.0912 27.9789 11.9768 27.4963 11.9219C27.4563 11.9173 27.4198 11.9131 27.387 11.9088L27.3486 11.9048C24.4402 11.6933 20.0478 11.6644 20.0038 11.6642L20 11.6641L19.9961 11.6642C19.9521 11.6644 15.5598 11.6933 12.6251 11.9048L12.5864 11.9088C12.5551 11.913 12.5207 11.9168 12.4833 11.9212C12.0063 11.9763 11.0136 12.0909 10.1261 13.0673C9.39679 13.8598 9.18597 15.4012 9.16432 15.5744L9.1618 15.5969C9.15526 15.6706 9 17.4247 9 19.1858V20.832C9 22.5931 9.15526 24.3472 9.1618 24.4211L9.16298 24.4322C9.18161 24.6064 9.36691 26.1526 10.1291 26.9541C10.9613 27.8648 12.0135 27.9853 12.5795 28.0501C12.6689 28.0603 12.746 28.0691 12.7985 28.0783L12.8494 28.0853C14.5287 28.2451 19.7938 28.3239 20.0171 28.327L20.0238 28.3272L20.0305 28.327C20.0745 28.3269 24.4667 28.298 27.3751 28.0865L27.4135 28.0825C27.4503 28.0776 27.4916 28.0733 27.5369 28.0686C28.0112 28.0182 28.9985 27.9136 29.8738 26.9505C30.6031 26.1578 30.8141 24.6165 30.8356 24.4434L30.8381 24.4209C30.8447 24.3471 31.0001 22.5931 31.0001 20.832V19.1858C30.9999 17.4247 30.8447 15.6707 30.8381 15.5969ZM29.7107 20.832C29.7107 22.462 29.5684 24.1406 29.5549 24.2947C29.5002 24.7192 29.2778 25.6944 28.9225 26.0806C28.3746 26.6833 27.8118 26.7431 27.401 26.7865C27.3513 26.7917 27.3053 26.7968 27.2637 26.802C24.4506 27.0054 20.224 27.0366 20.0293 27.0378C19.811 27.0346 14.6228 26.9552 12.9947 26.804C12.9113 26.7904 12.8212 26.78 12.7262 26.7693C12.2443 26.714 11.5847 26.6385 11.0774 26.0806L11.0655 26.0678C10.7164 25.7041 10.5004 24.7922 10.4455 24.2997C10.4353 24.1832 10.2892 22.4848 10.2892 20.832V19.1858C10.2892 17.5577 10.4312 15.8809 10.445 15.7236C10.5103 15.2236 10.7369 14.3075 11.0774 13.9372C11.6421 13.3162 12.2374 13.2474 12.6312 13.2019C12.6688 13.1975 12.7039 13.1935 12.7363 13.1893C15.5903 12.9848 19.8472 12.9545 20 12.9533C20.1527 12.9543 24.4081 12.9848 27.2368 13.1893C27.2716 13.1936 27.3095 13.198 27.3503 13.2027C27.7553 13.2489 28.3674 13.3187 28.9292 13.9179L28.9344 13.9234C29.2835 14.2872 29.4995 15.215 29.5544 15.7174C29.5642 15.8273 29.7107 17.5295 29.7107 19.1858V20.832Z" fill="white"/>
</g>
<defs>
<clipPath id="clip0_329_70">
<rect width="22" height="22" fill="white" transform="translate(9 9)"/>
</clipPath>
</defs>
</svg>
